<svg width="505" height="121" viewBox="0 0 505 121" fill="none" xmlns="http://www.w3.org/2000/svg">
<mask id="path-1-outside-1_1_92" maskUnits="userSpaceOnUse" x="0" y="0" width="505" height="121" fill="black">
<rect fill="white" width="505" height="121"/>
<path d="M25.944 47.768C22.4027 47.768 19.1387 47.2133 16.152 46.104C13.208 44.952 10.6267 43.3307 8.408 41.24C6.232 39.1493 4.52533 36.696 3.288 33.88C2.09333 31.064 1.496 27.9707 1.496 24.6C1.496 21.2293 2.09333 18.136 3.288 15.32C4.52533 12.504 6.25333 10.0507 8.472 7.96C10.6907 5.86933 13.2933 4.26933 16.28 3.16C19.2667 2.008 22.552 1.432 26.136 1.432C30.104 1.432 33.6667 2.09333 36.824 3.416C40.024 4.73866 42.712 6.65866 44.888 9.176L38.232 15.32C36.6107 13.6133 34.84 12.3547 32.92 11.544C31 10.6907 28.9093 10.264 26.648 10.264C24.472 10.264 22.488 10.6053 20.696 11.288C18.904 11.9707 17.3467 12.952 16.024 14.232C14.744 15.512 13.7413 17.0267 13.016 18.776C12.3333 20.5253 11.992 22.4667 11.992 24.6C11.992 26.6907 12.3333 28.6107 13.016 30.36C13.7413 32.1093 14.744 33.6453 16.024 34.968C17.3467 36.248 18.8827 37.2293 20.632 37.912C22.424 38.5947 24.3867 38.936 26.52 38.936C28.568 38.936 30.552 38.616 32.472 37.976C34.4347 37.2933 36.3333 36.1627 38.168 34.584L44.056 42.072C41.624 43.9067 38.7867 45.3147 35.544 46.296C32.344 47.2773 29.144 47.768 25.944 47.768ZM34.584 40.728V23.896H44.056V42.072L34.584 40.728ZM63.223 20.248H84.791V28.312H63.223V20.248ZM63.991 38.68H88.375V47H53.687V2.2H87.543V10.52H63.991V38.68ZM105.905 47V10.648H91.5685V2.2H130.609V10.648H116.273V47H105.905ZM148.424 47L168.392 2.2H178.632L198.664 47H187.784L171.4 7.448H175.496L159.048 47H148.424ZM158.408 37.4L161.16 29.528H184.2L187.016 37.4H158.408ZM203.312 47V2.2H211.888L238.32 34.456H234.16V2.2H244.4V47H235.888L209.392 14.744H213.552V47H203.312Z"/>
<path d="M4.312 119V74.2H14.68V119H4.312ZM25.312 119V74.2H33.888L60.32 106.456H56.16V74.2H66.4V119H57.888L31.392 86.744H35.552V119H25.312ZM86.2795 119V82.648H71.9435V74.2H110.984V82.648H96.6475V119H86.2795ZM126.098 92.248H147.666V100.312H126.098V92.248ZM126.866 110.68H151.25V119H116.562V74.2H150.418V82.52H126.866V110.68ZM159.5 119V74.2H178.892C182.902 74.2 186.358 74.8613 189.26 76.184C192.161 77.464 194.401 79.32 195.98 81.752C197.558 84.184 198.348 87.0853 198.348 90.456C198.348 93.784 197.558 96.664 195.98 99.096C194.401 101.485 192.161 103.32 189.26 104.6C186.358 105.88 182.902 106.52 178.892 106.52H165.26L169.868 101.976V119H159.5ZM187.979 119L176.78 102.744H187.852L199.18 119H187.979ZM169.868 103.128L165.26 98.264H178.316C181.516 98.264 183.905 97.5813 185.484 96.216C187.062 94.808 187.852 92.888 187.852 90.456C187.852 87.9813 187.062 86.0613 185.484 84.696C183.905 83.3307 181.516 82.648 178.316 82.648H165.26L169.868 77.72V103.128ZM220.002 119L200.674 74.2H211.874L228.77 113.88H222.178L239.33 74.2H249.634L230.242 119H220.002ZM262.911 92.248H284.479V100.312H262.911V92.248ZM263.679 110.68H288.062V119H253.375V74.2H287.231V82.52H263.679V110.68ZM296.312 119V74.2H304.888L331.32 106.456H327.16V74.2H337.4V119H328.888L302.392 86.744H306.552V119H296.312ZM357.28 119V82.648H342.944V74.2H381.984V82.648H367.648V119H357.28ZM387.562 119V74.2H397.93V119H387.562ZM430.322 119.768C426.781 119.768 423.495 119.192 420.466 118.04C417.479 116.888 414.877 115.267 412.658 113.176C410.482 111.085 408.775 108.632 407.538 105.816C406.343 103 405.746 99.928 405.746 96.6C405.746 93.272 406.343 90.2 407.538 87.384C408.775 84.568 410.503 82.1147 412.722 80.024C414.941 77.9333 417.543 76.312 420.53 75.16C423.517 74.008 426.759 73.432 430.258 73.432C433.799 73.432 437.042 74.008 439.986 75.16C442.973 76.312 445.554 77.9333 447.73 80.024C449.949 82.1147 451.677 84.568 452.914 87.384C454.151 90.1573 454.77 93.2293 454.77 96.6C454.77 99.928 454.151 103.021 452.914 105.88C451.677 108.696 449.949 111.149 447.73 113.24C445.554 115.288 442.973 116.888 439.986 118.04C437.042 119.192 433.821 119.768 430.322 119.768ZM430.258 110.936C432.263 110.936 434.098 110.595 435.762 109.912C437.469 109.229 438.962 108.248 440.242 106.968C441.522 105.688 442.503 104.173 443.186 102.424C443.911 100.675 444.274 98.7333 444.274 96.6C444.274 94.4667 443.911 92.5253 443.186 90.776C442.503 89.0267 441.522 87.512 440.242 86.232C439.005 84.952 437.533 83.9707 435.826 83.288C434.119 82.6053 432.263 82.264 430.258 82.264C428.253 82.264 426.397 82.6053 424.69 83.288C423.026 83.9707 421.554 84.952 420.274 86.232C418.994 87.512 417.991 89.0267 417.266 90.776C416.583 92.5253 416.242 94.4667 416.242 96.6C416.242 98.6907 416.583 100.632 417.266 102.424C417.991 104.173 418.973 105.688 420.21 106.968C421.49 108.248 422.983 109.229 424.69 109.912C426.397 110.595 428.253 110.936 430.258 110.936ZM462.562 119V74.2H471.138L497.57 106.456H493.41V74.2H503.65V119H495.138L468.642 86.744H472.802V119H462.562Z"/>
</mask>
<path d="M4.312 119V74.2H14.68V119H4.312ZM25.312 119V74.2H33.888L60.32 106.456H56.16V74.2H66.4V119H57.888L31.392 86.744H35.552V119H25.312ZM86.2795 119V82.648H71.9435V74.2H110.984V82.648H96.6475V119H86.2795ZM126.098 92.248H147.666V100.312H126.098V92.248ZM126.866 110.68H151.25V119H116.562V74.2H150.418V82.52H126.866V110.68ZM159.5 119V74.2H178.892C182.902 74.2 186.358 74.8613 189.26 76.184C192.161 77.464 194.401 79.32 195.98 81.752C197.558 84.184 198.348 87.0853 198.348 90.456C198.348 93.784 197.558 96.664 195.98 99.096C194.401 101.485 192.161 103.32 189.26 104.6C186.358 105.88 182.902 106.52 178.892 106.52H165.26L169.868 101.976V119H159.5ZM187.979 119L176.78 102.744H187.852L199.18 119H187.979ZM169.868 103.128L165.26 98.264H178.316C181.516 98.264 183.905 97.5813 185.484 96.216C187.062 94.808 187.852 92.888 187.852 90.456C187.852 87.9813 187.062 86.0613 185.484 84.696C183.905 83.3307 181.516 82.648 178.316 82.648H165.26L169.868 77.72V103.128ZM220.002 119L200.674 74.2H211.874L228.77 113.88H222.178L239.33 74.2H249.634L230.242 119H220.002ZM262.911 92.248H284.479V100.312H262.911V92.248ZM263.679 110.68H288.062V119H253.375V74.2H287.231V82.52H263.679V110.68ZM296.312 119V74.2H304.888L331.32 106.456H327.16V74.2H337.4V119H328.888L302.392 86.744H306.552V119H296.312ZM357.28 119V82.648H342.944V74.2H381.984V82.648H367.648V119H357.28ZM387.562 119V74.2H397.93V119H387.562ZM430.322 119.768C426.781 119.768 423.495 119.192 420.466 118.04C417.479 116.888 414.877 115.267 412.658 113.176C410.482 111.085 408.775 108.632 407.538 105.816C406.343 103 405.746 99.928 405.746 96.6C405.746 93.272 406.343 90.2 407.538 87.384C408.775 84.568 410.503 82.1147 412.722 80.024C414.941 77.9333 417.543 76.312 420.53 75.16C423.517 74.008 426.759 73.432 430.258 73.432C433.799 73.432 437.042 74.008 439.986 75.16C442.973 76.312 445.554 77.9333 447.73 80.024C449.949 82.1147 451.677 84.568 452.914 87.384C454.151 90.1573 454.77 93.2293 454.77 96.6C454.77 99.928 454.151 103.021 452.914 105.88C451.677 108.696 449.949 111.149 447.73 113.24C445.554 115.288 442.973 116.888 439.986 118.04C437.042 119.192 433.821 119.768 430.322 119.768ZM430.258 110.936C432.263 110.936 434.098 110.595 435.762 109.912C437.469 109.229 438.962 108.248 440.242 106.968C441.522 105.688 442.503 104.173 443.186 102.424C443.911 100.675 444.274 98.7333 444.274 96.6C444.274 94.4667 443.911 92.5253 443.186 90.776C442.503 89.0267 441.522 87.512 440.242 86.232C439.005 84.952 437.533 83.9707 435.826 83.288C434.119 82.6053 432.263 82.264 430.258 82.264C428.253 82.264 426.397 82.6053 424.69 83.288C423.026 83.9707 421.554 84.952 420.274 86.232C418.994 87.512 417.991 89.0267 417.266 90.776C416.583 92.5253 416.242 94.4667 416.242 96.6C416.242 98.6907 416.583 100.632 417.266 102.424C417.991 104.173 418.973 105.688 420.21 106.968C421.49 108.248 422.983 109.229 424.69 109.912C426.397 110.595 428.253 110.936 430.258 110.936ZM462.562 119V74.2H471.138L497.57 106.456H493.41V74.2H503.65V119H495.138L468.642 86.744H472.802V119H462.562Z" fill="white"/>
<path d="M16.152 46.104L15.7876 47.0352L15.7957 47.0384L15.8038 47.0414L16.152 46.104ZM8.408 41.24L7.71514 41.9611L7.7222 41.9678L8.408 41.24ZM3.288 33.88L2.36734 34.2706L2.37248 34.2823L3.288 33.88ZM3.288 15.32L2.37241 14.9177L2.36742 14.9294L3.288 15.32ZM8.472 7.96L9.1578 8.68779H9.1578L8.472 7.96ZM16.28 3.16L16.6282 4.09749L16.6399 4.093L16.28 3.16ZM36.824 3.416L36.4376 4.33834L36.442 4.34016L36.824 3.416ZM44.888 9.176L45.5663 9.9108L46.2775 9.2543L45.6445 8.52205L44.888 9.176ZM38.232 15.32L37.507 16.0087L38.1859 16.7234L38.9103 16.0548L38.232 15.32ZM32.92 11.544L32.5139 12.4578L32.5224 12.4616L32.531 12.4652L32.92 11.544ZM16.024 14.232L15.3286 13.5134L15.3227 13.5191L15.3169 13.5249L16.024 14.232ZM13.016 18.776L12.0923 18.393L12.0882 18.4027L12.0844 18.4125L13.016 18.776ZM13.016 30.36L12.0844 30.7235L12.0882 30.7333L12.0923 30.743L13.016 30.36ZM16.024 34.968L15.3054 35.6634L15.3168 35.6752L15.3286 35.6866L16.024 34.968ZM20.632 37.912L20.2684 38.8436L20.276 38.8465L20.632 37.912ZM32.472 37.976L32.7883 38.9248L32.8005 38.9205L32.472 37.976ZM38.168 34.584L38.9541 33.9659L38.308 33.1443L37.5158 33.826L38.168 34.584ZM44.056 42.072L44.6582 42.8703L45.4727 42.2559L44.8421 41.4539L44.056 42.072ZM35.544 46.296L35.2543 45.3389L35.2508 45.3399L35.544 46.296ZM34.584 40.728H33.584V41.5961L34.4435 41.7181L34.584 40.728ZM34.584 23.896V22.896H33.584V23.896H34.584ZM44.056 23.896H45.056V22.896H44.056V23.896ZM44.056 42.072L43.9155 43.0621L45.056 43.2239V42.072H44.056ZM25.944 46.768C22.5083 46.768 19.3637 46.2302 16.5002 45.1666L15.8038 47.0414C18.9136 48.1965 22.297 48.768 25.944 48.768V46.768ZM16.5164 45.1728C13.6871 44.0656 11.2159 42.5119 9.0938 40.5122L7.7222 41.9678C10.0374 44.1495 12.7289 45.8384 15.7876 47.0352L16.5164 45.1728ZM9.10083 40.5189C7.02106 38.5207 5.38924 36.1763 4.20352 33.4777L2.37248 34.2823C3.66142 37.2157 5.44294 39.778 7.71517 41.9611L9.10083 40.5189ZM4.20858 33.4894C3.07144 30.809 2.496 27.8502 2.496 24.6H0.496C0.496 28.0911 1.11523 31.319 2.36742 34.2705L4.20858 33.4894ZM2.496 24.6C2.496 21.3498 3.07144 18.391 4.20858 15.7105L2.36742 14.9294C1.11523 17.881 0.496 21.1089 0.496 24.6H2.496ZM4.20352 15.7223C5.38739 13.028 7.03766 10.6856 9.1578 8.68779L7.7862 7.23221C5.469 9.41572 3.66328 11.98 2.37248 14.9177L4.20352 15.7223ZM9.1578 8.68779C11.2747 6.69301 13.7612 5.16231 16.6282 4.09742L15.9318 2.22257C12.8255 3.37635 10.1066 5.04565 7.7862 7.23221L9.1578 8.68779ZM16.6399 4.093C19.4988 2.99027 22.6604 2.432 26.136 2.432V0.431999C22.4436 0.431999 19.0345 1.02573 15.9201 2.22699L16.6399 4.093ZM26.136 2.432C29.9922 2.432 33.4205 3.07443 36.4376 4.33834L37.2104 2.49366C33.9128 1.11223 30.2158 0.431999 26.136 0.431999V2.432ZM36.442 4.34016C39.5038 5.60571 42.0617 7.43553 44.1315 9.82995L45.6445 8.52205C43.3623 5.8818 40.5442 3.87161 37.206 2.49183L36.442 4.34016ZM44.2097 8.44119L37.5537 14.5852L38.9103 16.0548L45.5663 9.9108L44.2097 8.44119ZM38.957 14.6312C37.2531 12.8377 35.3712 11.4935 33.309 10.6227L32.531 12.4652C34.3088 13.2158 35.9682 14.389 37.507 16.0087L38.957 14.6312ZM33.3261 10.6302C31.2687 9.71579 29.0384 9.264 26.648 9.264V11.264C28.7802 11.264 30.7313 11.6655 32.5139 12.4578L33.3261 10.6302ZM26.648 9.264C24.3666 9.264 22.2599 9.6221 20.34 10.3535L21.052 12.2225C22.7161 11.5886 24.5774 11.264 26.648 11.264V9.264ZM20.34 10.3535C18.4268 11.0823 16.7527 12.1352 15.3286 13.5134L16.7194 14.9506C17.9407 13.7688 19.3812 12.859 21.052 12.2225L20.34 10.3535ZM15.3169 13.5249C13.9399 14.9019 12.8655 16.5281 12.0923 18.393L13.9397 19.159C14.6172 17.5252 15.5481 16.1221 16.7311 14.9391L15.3169 13.5249ZM12.0844 18.4125C11.3508 20.2923 10.992 22.3591 10.992 24.6H12.992C12.992 22.5743 13.3159 20.7583 13.9476 19.1395L12.0844 18.4125ZM10.992 24.6C10.992 26.801 11.3517 28.8459 12.0844 30.7235L13.9476 29.9965C13.315 28.3754 12.992 26.5803 12.992 24.6H10.992ZM12.0923 30.743C12.8643 32.605 13.9355 34.2478 15.3054 35.6634L16.7426 34.2726C15.5525 33.0429 14.6184 31.6136 13.9397 29.977L12.0923 30.743ZM15.3286 35.6866C16.7486 37.0608 18.398 38.1137 20.2685 38.8436L20.9955 36.9804C19.3673 36.345 17.9447 35.4352 16.7194 34.2494L15.3286 35.6866ZM20.276 38.8465C22.1938 39.5771 24.2786 39.936 26.52 39.936V37.936C24.4947 37.936 22.6542 37.6123 20.988 36.9775L20.276 38.8465ZM26.52 39.936C28.6742 39.936 30.765 39.5991 32.7882 38.9247L32.1558 37.0273C30.339 37.6329 28.4618 37.936 26.52 37.936V39.936ZM32.8005 38.9205C34.8997 38.1903 36.9058 36.9893 38.8202 35.342L37.5158 33.826C35.7609 35.336 33.9696 36.3963 32.1435 37.0315L32.8005 38.9205ZM37.3819 35.2021L43.2699 42.6901L44.8421 41.4539L38.9541 33.9659L37.3819 35.2021ZM43.4538 41.2737C41.1257 43.0299 38.3969 44.3878 35.2543 45.3389L35.8337 47.2531C39.1765 46.2415 42.1223 44.7834 44.6582 42.8703L43.4538 41.2737ZM35.2508 45.3399C32.1414 46.2935 29.0401 46.768 25.944 46.768V48.768C29.2479 48.768 32.5466 48.2612 35.8372 47.2521L35.2508 45.3399ZM35.584 40.728V23.896H33.584V40.728H35.584ZM34.584 24.896H44.056V22.896H34.584V24.896ZM43.056 23.896V42.072H45.056V23.896H43.056ZM44.1965 41.0819L34.7245 39.7379L34.4435 41.7181L43.9155 43.0621L44.1965 41.0819ZM63.223 20.248V19.248H62.223V20.248H63.223ZM84.791 20.248H85.791V19.248H84.791V20.248ZM84.791 28.312V29.312H85.791V28.312H84.791ZM63.223 28.312H62.223V29.312H63.223V28.312ZM63.991 38.68H62.991V39.68H63.991V38.68ZM88.375 38.68H89.375V37.68H88.375V38.68ZM88.375 47V48H89.375V47H88.375ZM53.687 47H52.687V48H53.687V47ZM53.687 2.2V1.2H52.687V2.2H53.687ZM87.543 2.2H88.543V1.2H87.543V2.2ZM87.543 10.52V11.52H88.543V10.52H87.543ZM63.991 10.52V9.52H62.991V10.52H63.991ZM63.223 21.248H84.791V19.248H63.223V21.248ZM83.791 20.248V28.312H85.791V20.248H83.791ZM84.791 27.312H63.223V29.312H84.791V27.312ZM64.223 28.312V20.248H62.223V28.312H64.223ZM63.991 39.68H88.375V37.68H63.991V39.68ZM87.375 38.68V47H89.375V38.68H87.375ZM88.375 46H53.687V48H88.375V46ZM54.687 47V2.2H52.687V47H54.687ZM53.687 3.2H87.543V1.2H53.687V3.2ZM86.543 2.2V10.52H88.543V2.2H86.543ZM87.543 9.52H63.991V11.52H87.543V9.52ZM62.991 10.52V38.68H64.991V10.52H62.991ZM105.905 47H104.905V48H105.905V47ZM105.905 10.648H106.905V9.648H105.905V10.648ZM91.5685 10.648H90.5685V11.648H91.5685V10.648ZM91.5685 2.2V1.2H90.5685V2.2H91.5685ZM130.609 2.2H131.609V1.2H130.609V2.2ZM130.609 10.648V11.648H131.609V10.648H130.609ZM116.272 10.648V9.648H115.272V10.648H116.272ZM116.272 47V48H117.272V47H116.272ZM106.905 47V10.648H104.905V47H106.905ZM105.905 9.648H91.5685V11.648H105.905V9.648ZM92.5685 10.648V2.2H90.5685V10.648H92.5685ZM91.5685 3.2H130.609V1.2H91.5685V3.2ZM129.609 2.2V10.648H131.609V2.2H129.609ZM130.609 9.648H116.272V11.648H130.609V9.648ZM115.272 10.648V47H117.272V10.648H115.272ZM116.272 46H105.905V48H116.272V46ZM148.424 47L147.511 46.5929L146.883 48H148.424V47ZM168.392 2.2V1.2H167.743L167.479 1.79289L168.392 2.2ZM178.632 2.2L179.545 1.7918L179.28 1.2H178.632V2.2ZM198.664 47V48H200.207L199.577 46.5918L198.664 47ZM187.784 47L186.86 47.3827L187.116 48H187.784V47ZM171.4 7.448V6.448H169.903L170.476 7.8307L171.4 7.448ZM175.496 7.448L176.419 7.83198L176.995 6.448H175.496V7.448ZM159.048 47V48H159.715L159.971 47.384L159.048 47ZM158.408 37.4L157.464 37.07L156.999 38.4H158.408V37.4ZM161.16 29.528V28.528H160.45L160.216 29.198L161.16 29.528ZM184.2 29.528L185.142 29.1912L184.904 28.528H184.2V29.528ZM187.016 37.4V38.4H188.436L187.958 37.0632L187.016 37.4ZM149.337 47.4071L169.305 2.6071L167.479 1.79289L147.511 46.5929L149.337 47.4071ZM168.392 3.2H178.632V1.2H168.392V3.2ZM177.719 2.60819L197.751 47.4082L199.577 46.5918L179.545 1.7918L177.719 2.60819ZM198.664 46H187.784V48H198.664V46ZM188.708 46.6173L172.324 7.06529L170.476 7.8307L186.86 47.3827L188.708 46.6173ZM171.4 8.448H175.496V6.448H171.4V8.448ZM174.573 7.06402L158.125 46.616L159.971 47.384L176.419 7.83198L174.573 7.06402ZM159.048 46H148.424V48H159.048V46ZM159.352 37.73L162.104 29.858L160.216 29.198L157.464 37.07L159.352 37.73ZM161.16 30.528H184.2V28.528H161.16V30.528ZM183.258 29.8648L186.074 37.7368L187.958 37.0632L185.142 29.1912L183.258 29.8648ZM187.016 36.4H158.408V38.4H187.016V36.4ZM203.312 47H202.312V48H203.312V47ZM203.312 2.2V1.2H202.312V2.2H203.312ZM211.888 2.2L212.661 1.56617L212.361 1.2H211.888V2.2ZM238.32 34.456V35.456H240.432L239.093 33.8222L238.32 34.456ZM234.16 34.456H233.16V35.456H234.16V34.456ZM234.16 2.2V1.2H233.16V2.2H234.16ZM244.4 2.2H245.4V1.2H244.4V2.2ZM244.4 47V48H245.4V47H244.4ZM235.888 47L235.115 47.6347L235.415 48H235.888V47ZM209.392 14.744V13.744H207.276L208.619 15.3787L209.392 14.744ZM213.552 14.744H214.552V13.744H213.552V14.744ZM213.552 47V48H214.552V47H213.552ZM204.312 47V2.2H202.312V47H204.312ZM203.312 3.2H211.888V1.2H203.312V3.2ZM211.115 2.83382L237.547 35.0898L239.093 33.8222L212.661 1.56617L211.115 2.83382ZM238.32 33.456H234.16V35.456H238.32V33.456ZM235.16 34.456V2.2H233.16V34.456H235.16ZM234.16 3.2H244.4V1.2H234.16V3.2ZM243.4 2.2V47H245.4V2.2H243.4ZM244.4 46H235.888V48H244.4V46ZM236.661 46.3653L210.165 14.1093L208.619 15.3787L235.115 47.6347L236.661 46.3653ZM209.392 15.744H213.552V13.744H209.392V15.744ZM212.552 14.744V47H214.552V14.744H212.552ZM213.552 46H203.312V48H213.552V46ZM4.312 119H3.312V120H4.312V119ZM4.312 74.2V73.2H3.312V74.2H4.312ZM14.68 74.2H15.68V73.2H14.68V74.2ZM14.68 119V120H15.68V119H14.68ZM5.312 119V74.2H3.312V119H5.312ZM4.312 75.2H14.68V73.2H4.312V75.2ZM13.68 74.2V119H15.68V74.2H13.68ZM14.68 118H4.312V120H14.68V118ZM25.312 119H24.312V120H25.312V119ZM25.312 74.2V73.2H24.312V74.2H25.312ZM33.888 74.2L34.6615 73.5662L34.3614 73.2H33.888V74.2ZM60.32 106.456V107.456H62.4323L61.0935 105.822L60.32 106.456ZM56.16 106.456H55.16V107.456H56.16V106.456ZM56.16 74.2V73.2H55.16V74.2H56.16ZM66.4 74.2H67.4V73.2H66.4V74.2ZM66.4 119V120H67.4V119H66.4ZM57.888 119L57.1153 119.635L57.4153 120H57.888V119ZM31.392 86.744V85.744H29.2765L30.6193 87.3787L31.392 86.744ZM35.552 86.744H36.552V85.744H35.552V86.744ZM35.552 119V120H36.552V119H35.552ZM26.312 119V74.2H24.312V119H26.312ZM25.312 75.2H33.888V73.2H25.312V75.2ZM33.1145 74.8338L59.5465 107.09L61.0935 105.822L34.6615 73.5662L33.1145 74.8338ZM60.32 105.456H56.16V107.456H60.32V105.456ZM57.16 106.456V74.2H55.16V106.456H57.16ZM56.16 75.2H66.4V73.2H56.16V75.2ZM65.4 74.2V119H67.4V74.2H65.4ZM66.4 118H57.888V120H66.4V118ZM58.6607 118.365L32.1647 86.1093L30.6193 87.3787L57.1153 119.635L58.6607 118.365ZM31.392 87.744H35.552V85.744H31.392V87.744ZM34.552 86.744V119H36.552V86.744H34.552ZM35.552 118H25.312V120H35.552V118ZM86.2795 119H85.2795V120H86.2795V119ZM86.2795 82.648H87.2795V81.648H86.2795V82.648ZM71.9435 82.648H70.9435V83.648H71.9435V82.648ZM71.9435 74.2V73.2H70.9435V74.2H71.9435ZM110.984 74.2H111.984V73.2H110.984V74.2ZM110.984 82.648V83.648H111.984V82.648H110.984ZM96.6475 82.648V81.648H95.6475V82.648H96.6475ZM96.6475 119V120H97.6475V119H96.6475ZM87.2795 119V82.648H85.2795V119H87.2795ZM86.2795 81.648H71.9435V83.648H86.2795V81.648ZM72.9435 82.648V74.2H70.9435V82.648H72.9435ZM71.9435 75.2H110.984V73.2H71.9435V75.2ZM109.984 74.2V82.648H111.984V74.2H109.984ZM110.984 81.648H96.6475V83.648H110.984V81.648ZM95.6475 82.648V119H97.6475V82.648H95.6475ZM96.6475 118H86.2795V120H96.6475V118ZM126.098 92.248V91.248H125.098V92.248H126.098ZM147.666 92.248H148.666V91.248H147.666V92.248ZM147.666 100.312V101.312H148.666V100.312H147.666ZM126.098 100.312H125.098V101.312H126.098V100.312ZM126.866 110.68H125.866V111.68H126.866V110.68ZM151.25 110.68H152.25V109.68H151.25V110.68ZM151.25 119V120H152.25V119H151.25ZM116.562 119H115.562V120H116.562V119ZM116.562 74.2V73.2H115.562V74.2H116.562ZM150.418 74.2H151.418V73.2H150.418V74.2ZM150.418 82.52V83.52H151.418V82.52H150.418ZM126.866 82.52V81.52H125.866V82.52H126.866ZM126.098 93.248H147.666V91.248H126.098V93.248ZM146.666 92.248V100.312H148.666V92.248H146.666ZM147.666 99.312H126.098V101.312H147.666V99.312ZM127.098 100.312V92.248H125.098V100.312H127.098ZM126.866 111.68H151.25V109.68H126.866V111.68ZM150.25 110.68V119H152.25V110.68H150.25ZM151.25 118H116.562V120H151.25V118ZM117.562 119V74.2H115.562V119H117.562ZM116.562 75.2H150.418V73.2H116.562V75.2ZM149.418 74.2V82.52H151.418V74.2H149.418ZM150.418 81.52H126.866V83.52H150.418V81.52ZM125.866 82.52V110.68H127.866V82.52H125.866ZM159.499 119H158.499V120H159.499V119ZM159.499 74.2V73.2H158.499V74.2H159.499ZM189.26 76.184L188.845 77.094L188.856 77.0989L189.26 76.184ZM195.98 81.752L195.141 82.2965L195.98 81.752ZM195.98 99.096L196.814 99.6473L196.818 99.6405L195.98 99.096ZM189.26 104.6L189.663 105.515L189.26 104.6ZM165.26 106.52L164.557 105.808L162.821 107.52H165.26V106.52ZM169.867 101.976H170.867V99.5855L169.165 101.264L169.867 101.976ZM169.867 119V120H170.867V119H169.867ZM187.979 119L187.156 119.567L187.454 120H187.979V119ZM176.779 102.744V101.744H174.876L175.956 103.311L176.779 102.744ZM187.852 102.744L188.672 102.172L188.374 101.744H187.852V102.744ZM199.18 119V120H201.095L200 118.428L199.18 119ZM169.867 103.128L169.142 103.816L170.867 105.638V103.128H169.867ZM165.26 98.264V97.264H162.935L164.534 98.9517L165.26 98.264ZM185.484 96.216L186.138 96.9724L186.143 96.9674L186.149 96.9623L185.484 96.216ZM165.26 82.648L164.529 81.965L162.955 83.648H165.26V82.648ZM169.867 77.72H170.867V75.1864L169.137 77.037L169.867 77.72ZM160.499 119V74.2H158.499V119H160.499ZM159.499 75.2H178.891V73.2H159.499V75.2ZM178.891 75.2C182.795 75.2 186.103 75.8438 188.845 77.0939L189.674 75.2741C186.614 73.8788 183.01 73.2 178.891 73.2V75.2ZM188.856 77.0989C191.597 78.3081 193.678 80.0429 195.141 82.2965L196.818 81.2075C195.124 78.5971 192.725 76.6199 189.663 75.2691L188.856 77.0989ZM195.141 82.2965C196.598 84.5414 197.348 87.2465 197.348 90.456H199.348C199.348 86.9242 198.518 83.8266 196.818 81.2075L195.141 82.2965ZM197.348 90.456C197.348 93.62 196.599 96.3046 195.141 98.5515L196.818 99.6405C198.517 97.0234 199.348 93.948 199.348 90.456H197.348ZM195.145 98.5447C193.683 100.757 191.601 102.474 188.856 103.685L189.663 105.515C192.72 104.166 195.118 102.214 196.814 99.6473L195.145 98.5447ZM188.856 103.685C186.111 104.896 182.799 105.52 178.891 105.52V107.52C183.006 107.52 186.606 106.864 189.663 105.515L188.856 103.685ZM178.891 105.52H165.26V107.52H178.891V105.52ZM165.962 107.232L170.57 102.688L169.165 101.264L164.557 105.808L165.962 107.232ZM168.867 101.976V119H170.867V101.976H168.867ZM169.867 118H159.499V120H169.867V118ZM188.803 118.433L177.603 102.177L175.956 103.311L187.156 119.567L188.803 118.433ZM176.779 103.744H187.852V101.744H176.779V103.744ZM187.031 103.316L198.359 119.572L200 118.428L188.672 102.172L187.031 103.316ZM199.18 118H187.979V120H199.18V118ZM170.593 102.44L165.985 97.5763L164.534 98.9517L169.142 103.816L170.593 102.44ZM165.26 99.264H178.316V97.264H165.26V99.264ZM178.316 99.264C181.633 99.264 184.302 98.5599 186.138 96.9724L184.829 95.4596C183.508 96.6027 181.398 97.264 178.316 97.264V99.264ZM186.149 96.9623C187.973 95.3353 188.852 93.1259 188.852 90.456H186.852C186.852 92.6501 186.151 94.2807 184.818 95.4697L186.149 96.9623ZM188.852 90.456C188.852 87.7503 187.977 85.5306 186.138 83.9396L184.829 85.4524C186.147 86.5921 186.852 88.2124 186.852 90.456H188.852ZM186.138 83.9396C184.302 82.3521 181.633 81.648 178.316 81.648V83.648C181.398 83.648 183.508 84.3093 184.829 85.4524L186.138 83.9396ZM178.316 81.648H165.26V83.648H178.316V81.648ZM165.99 83.331L170.598 78.403L169.137 77.037L164.529 81.965L165.99 83.331ZM168.867 77.72V103.128H170.867V77.72H168.867ZM220.002 119L219.084 119.396L219.344 120H220.002V119ZM200.674 74.2V73.2H199.153L199.756 74.5961L200.674 74.2ZM211.874 74.2L212.794 73.8082L212.535 73.2H211.874V74.2ZM228.77 113.88V114.88H230.283L229.69 113.488L228.77 113.88ZM222.178 113.88L221.26 113.483L220.656 114.88H222.178V113.88ZM239.33 74.2V73.2H238.673L238.412 73.8032L239.33 74.2ZM249.634 74.2L250.552 74.5972L251.157 73.2H249.634V74.2ZM230.242 119V120H230.899L231.16 119.397L230.242 119ZM220.92 118.604L201.592 73.8039L199.756 74.5961L219.084 119.396L220.92 118.604ZM200.674 75.2H211.874V73.2H200.674V75.2ZM210.954 74.5918L227.85 114.272L229.69 113.488L212.794 73.8082L210.954 74.5918ZM228.77 112.88H222.178V114.88H228.77V112.88ZM223.096 114.277L240.248 74.5968L238.412 73.8032L221.26 113.483L223.096 114.277ZM239.33 75.2H249.634V73.2H239.33V75.2ZM248.716 73.8028L229.324 118.603L231.16 119.397L250.552 74.5972L248.716 73.8028ZM230.242 118H220.002V120H230.242V118ZM262.91 92.248V91.248H261.91V92.248H262.91ZM284.479 92.248H285.479V91.248H284.479V92.248ZM284.479 100.312V101.312H285.479V100.312H284.479ZM262.91 100.312H261.91V101.312H262.91V100.312ZM263.678 110.68H262.678V111.68H263.678V110.68ZM288.062 110.68H289.062V109.68H288.062V110.68ZM288.062 119V120H289.062V119H288.062ZM253.374 119H252.374V120H253.374V119ZM253.374 74.2V73.2H252.374V74.2H253.374ZM287.23 74.2H288.23V73.2H287.23V74.2ZM287.23 82.52V83.52H288.23V82.52H287.23ZM263.678 82.52V81.52H262.678V82.52H263.678ZM262.91 93.248H284.479V91.248H262.91V93.248ZM283.479 92.248V100.312H285.479V92.248H283.479ZM284.479 99.312H262.91V101.312H284.479V99.312ZM263.91 100.312V92.248H261.91V100.312H263.91ZM263.678 111.68H288.062V109.68H263.678V111.68ZM287.062 110.68V119H289.062V110.68H287.062ZM288.062 118H253.374V120H288.062V118ZM254.374 119V74.2H252.374V119H254.374ZM253.374 75.2H287.23V73.2H253.374V75.2ZM286.23 74.2V82.52H288.23V74.2H286.23ZM287.23 81.52H263.678V83.52H287.23V81.52ZM262.678 82.52V110.68H264.678V82.52H262.678ZM296.312 119H295.312V120H296.312V119ZM296.312 74.2V73.2H295.312V74.2H296.312ZM304.888 74.2L305.661 73.5662L305.361 73.2H304.888V74.2ZM331.32 106.456V107.456H333.432L332.093 105.822L331.32 106.456ZM327.16 106.456H326.16V107.456H327.16V106.456ZM327.16 74.2V73.2H326.16V74.2H327.16ZM337.4 74.2H338.4V73.2H337.4V74.2ZM337.4 119V120H338.4V119H337.4ZM328.888 119L328.115 119.635L328.415 120H328.888V119ZM302.392 86.744V85.744H300.276L301.619 87.3787L302.392 86.744ZM306.552 86.744H307.552V85.744H306.552V86.744ZM306.552 119V120H307.552V119H306.552ZM297.312 119V74.2H295.312V119H297.312ZM296.312 75.2H304.888V73.2H296.312V75.2ZM304.115 74.8338L330.547 107.09L332.093 105.822L305.661 73.5662L304.115 74.8338ZM331.32 105.456H327.16V107.456H331.32V105.456ZM328.16 106.456V74.2H326.16V106.456H328.16ZM327.16 75.2H337.4V73.2H327.16V75.2ZM336.4 74.2V119H338.4V74.2H336.4ZM337.4 118H328.888V120H337.4V118ZM329.661 118.365L303.165 86.1093L301.619 87.3787L328.115 119.635L329.661 118.365ZM302.392 87.744H306.552V85.744H302.392V87.744ZM305.552 86.744V119H307.552V86.744H305.552ZM306.552 118H296.312V120H306.552V118ZM357.28 119H356.28V120H357.28V119ZM357.28 82.648H358.28V81.648H357.28V82.648ZM342.944 82.648H341.944V83.648H342.944V82.648ZM342.944 74.2V73.2H341.944V74.2H342.944ZM381.983 74.2H382.983V73.2H381.983V74.2ZM381.983 82.648V83.648H382.983V82.648H381.983ZM367.647 82.648V81.648H366.647V82.648H367.647ZM367.647 119V120H368.647V119H367.647ZM358.28 119V82.648H356.28V119H358.28ZM357.28 81.648H342.944V83.648H357.28V81.648ZM343.944 82.648V74.2H341.944V82.648H343.944ZM342.944 75.2H381.983V73.2H342.944V75.2ZM380.983 74.2V82.648H382.983V74.2H380.983ZM381.983 81.648H367.647V83.648H381.983V81.648ZM366.647 82.648V119H368.647V82.648H366.647ZM367.647 118H357.28V120H367.647V118ZM387.562 119H386.562V120H387.562V119ZM387.562 74.2V73.2H386.562V74.2H387.562ZM397.93 74.2H398.93V73.2H397.93V74.2ZM397.93 119V120H398.93V119H397.93ZM388.562 119V74.2H386.562V119H388.562ZM387.562 75.2H397.93V73.2H387.562V75.2ZM396.93 74.2V119H398.93V74.2H396.93ZM397.93 118H387.562V120H397.93V118ZM420.466 118.04L420.106 118.973L420.111 118.975L420.466 118.04ZM412.658 113.176L411.965 113.897L411.972 113.904L412.658 113.176ZM407.538 105.816L406.617 106.207L406.622 106.218L407.538 105.816ZM407.538 87.384L406.622 86.9817L406.617 86.9934L407.538 87.384ZM420.53 75.16L420.17 74.227L420.53 75.16ZM439.986 75.16L439.622 76.0912L439.626 76.093L439.986 75.16ZM447.73 80.024L447.037 80.7451L447.044 80.7518L447.73 80.024ZM452.914 87.384L451.998 87.7863L452.001 87.7914L452.914 87.384ZM452.914 105.88L453.83 106.282L453.832 106.277L452.914 105.88ZM447.73 113.24L448.415 113.968L448.416 113.968L447.73 113.24ZM439.986 118.04L439.626 117.107L439.622 117.109L439.986 118.04ZM435.762 109.912L435.391 108.983L435.382 108.987L435.762 109.912ZM440.242 106.968L439.535 106.261L440.242 106.968ZM443.186 102.424L442.262 102.041L442.258 102.051L442.254 102.06L443.186 102.424ZM443.186 90.776L442.254 91.1395L442.258 91.1493L442.262 91.159L443.186 90.776ZM440.242 86.232L439.523 86.927L439.529 86.9331L439.535 86.9391L440.242 86.232ZM435.826 83.288L435.455 84.2165L435.826 83.288ZM424.69 83.288L424.319 82.3595L424.31 82.3628L424.69 83.288ZM420.274 86.232L420.981 86.9391L420.274 86.232ZM417.266 90.776L416.342 90.393L416.338 90.4027L416.334 90.4125L417.266 90.776ZM417.266 102.424L416.332 102.78L416.337 102.794L416.342 102.807L417.266 102.424ZM420.21 106.968L419.491 107.663L419.497 107.669L419.503 107.675L420.21 106.968ZM424.69 109.912L424.319 110.84L424.69 109.912ZM430.322 118.768C426.891 118.768 423.727 118.21 420.821 117.105L420.111 118.975C423.263 120.174 426.67 120.768 430.322 120.768V118.768ZM420.826 117.107C417.954 115.999 415.463 114.446 413.344 112.448L411.972 113.904C414.29 116.088 417.005 117.777 420.106 118.973L420.826 117.107ZM413.351 112.455C411.271 110.457 409.639 108.112 408.454 105.414L406.622 106.218C407.911 109.152 409.693 111.714 411.965 113.897L413.351 112.455ZM408.459 105.425C407.321 102.743 406.746 99.8057 406.746 96.6H404.746C404.746 100.05 405.366 103.257 406.617 106.207L408.459 105.425ZM406.746 96.6C406.746 93.3943 407.321 90.4565 408.459 87.7746L406.617 86.9934C405.366 89.9435 404.746 93.1497 404.746 96.6H406.746ZM408.454 87.7863C409.637 85.092 411.288 82.7496 413.408 80.7518L412.036 79.2962C409.719 81.4797 407.913 84.044 406.622 86.9817L408.454 87.7863ZM413.408 80.7518C415.527 78.7544 418.018 77.2007 420.89 76.093L420.17 74.227C417.069 75.4233 414.354 77.1123 412.036 79.2962L413.408 80.7518ZM420.89 76.093C423.751 74.9892 426.871 74.432 430.258 74.432V72.432C426.648 72.432 423.282 73.0268 420.17 74.227L420.89 76.093ZM430.258 74.432C433.69 74.432 436.807 74.9898 439.622 76.0912L440.35 74.2288C437.277 73.0262 433.909 72.432 430.258 72.432V74.432ZM439.626 76.093C442.496 77.2001 444.963 78.752 447.037 80.7451L448.423 79.3029C446.145 77.1147 443.449 75.4239 440.346 74.227L439.626 76.093ZM447.044 80.7518C449.164 82.7496 450.815 85.092 451.998 87.7863L453.83 86.9817C452.539 84.044 450.733 81.4797 448.416 79.2962L447.044 80.7518ZM452.001 87.7914C453.175 90.4231 453.77 93.3542 453.77 96.6H455.77C455.77 93.1045 455.128 89.8916 453.827 86.9766L452.001 87.7914ZM453.77 96.6C453.77 99.8008 453.176 102.758 451.996 105.483L453.832 106.277C455.127 103.285 455.77 100.055 455.77 96.6H453.77ZM451.998 105.478C450.815 108.172 449.164 110.514 447.044 112.512L448.416 113.968C450.733 111.784 452.539 109.22 453.83 106.282L451.998 105.478ZM447.045 112.512C444.969 114.465 442.501 115.998 439.626 117.107L440.346 118.973C443.445 117.778 446.139 116.111 448.415 113.968L447.045 112.512ZM439.622 117.109C436.805 118.211 433.709 118.768 430.322 118.768V120.768C433.932 120.768 437.279 120.173 440.35 118.971L439.622 117.109ZM430.258 111.936C432.379 111.936 434.344 111.575 436.142 110.837L435.382 108.987C433.852 109.615 432.148 109.936 430.258 109.936V111.936ZM436.133 110.84C437.964 110.108 439.572 109.052 440.949 107.675L439.535 106.261C438.352 107.444 436.974 108.35 435.391 108.984L436.133 110.84ZM440.949 107.675C442.331 106.294 443.387 104.661 444.118 102.788L442.254 102.06C441.62 103.686 440.713 105.082 439.535 106.261L440.949 107.675ZM444.11 102.807C444.891 100.922 445.274 98.8482 445.274 96.6H443.274C443.274 98.6185 442.931 100.428 442.262 102.041L444.11 102.807ZM445.274 96.6C445.274 94.3518 444.891 92.2782 444.11 90.393L442.262 91.159C442.931 92.7725 443.274 94.5815 443.274 96.6H445.274ZM444.118 90.4125C443.387 88.5392 442.331 86.9063 440.949 85.5249L439.535 86.9391C440.713 88.1177 441.62 89.5141 442.254 91.1395L444.118 90.4125ZM440.961 85.537C439.622 84.1522 438.031 83.0929 436.197 82.3595L435.455 84.2165C437.035 84.8485 438.387 85.7518 439.523 86.927L440.961 85.537ZM436.197 82.3595C434.362 81.6255 432.379 81.264 430.258 81.264V83.264C432.148 83.264 433.876 83.5852 435.455 84.2165L436.197 82.3595ZM430.258 81.264C428.137 81.264 426.154 81.6255 424.319 82.3595L425.061 84.2165C426.64 83.5852 428.368 83.264 430.258 83.264V81.264ZM424.31 82.3628C422.523 83.0961 420.94 84.1518 419.567 85.5249L420.981 86.9391C422.168 85.7521 423.529 84.8452 425.07 84.2132L424.31 82.3628ZM419.567 85.5249C418.19 86.9019 417.115 88.5281 416.342 90.393L418.19 91.159C418.867 89.5252 419.798 88.1221 420.981 86.9391L419.567 85.5249ZM416.334 90.4125C415.601 92.2923 415.242 94.3591 415.242 96.6H417.242C417.242 94.5743 417.566 92.7583 418.198 91.1395L416.334 90.4125ZM415.242 96.6C415.242 98.8013 415.602 100.864 416.332 102.78L418.201 102.068C417.565 100.4 417.242 98.58 417.242 96.6H415.242ZM416.342 102.807C417.113 104.665 418.161 106.287 419.491 107.663L420.929 106.273C419.784 105.089 418.87 103.682 418.19 102.041L416.342 102.807ZM419.503 107.675C420.88 109.052 422.488 110.108 424.319 110.84L425.061 108.984C423.478 108.35 422.1 107.444 420.917 106.261L419.503 107.675ZM424.319 110.84C426.154 111.575 428.137 111.936 430.258 111.936V109.936C428.368 109.936 426.64 109.615 425.061 108.984L424.319 110.84ZM462.562 119H461.562V120H462.562V119ZM462.562 74.2V73.2H461.562V74.2H462.562ZM471.138 74.2L471.911 73.5662L471.611 73.2H471.138V74.2ZM497.57 106.456V107.456H499.682L498.343 105.822L497.57 106.456ZM493.41 106.456H492.41V107.456H493.41V106.456ZM493.41 74.2V73.2H492.41V74.2H493.41ZM503.65 74.2H504.65V73.2H503.65V74.2ZM503.65 119V120H504.65V119H503.65ZM495.138 119L494.365 119.635L494.665 120H495.138V119ZM468.642 86.744V85.744H466.526L467.869 87.3787L468.642 86.744ZM472.802 86.744H473.802V85.744H472.802V86.744ZM472.802 119V120H473.802V119H472.802ZM463.562 119V74.2H461.562V119H463.562ZM462.562 75.2H471.138V73.2H462.562V75.2ZM470.365 74.8338L496.797 107.09L498.343 105.822L471.911 73.5662L470.365 74.8338ZM497.57 105.456H493.41V107.456H497.57V105.456ZM494.41 106.456V74.2H492.41V106.456H494.41ZM493.41 75.2H503.65V73.2H493.41V75.2ZM502.65 74.2V119H504.65V74.2H502.65ZM503.65 118H495.138V120H503.65V118ZM495.911 118.365L469.415 86.1093L467.869 87.3787L494.365 119.635L495.911 118.365ZM468.642 87.744H472.802V85.744H468.642V87.744ZM471.802 86.744V119H473.802V86.744H471.802ZM472.802 118H462.562V120H472.802V118Z" fill="white" mask="url(#path-1-outside-1_1_92)"/>
</svg>
