<svg width="502" height="121" viewBox="0 0 502 121" fill="none" xmlns="http://www.w3.org/2000/svg">
<mask id="path-1-outside-1_1_330" maskUnits="userSpaceOnUse" x="0" y="0" width="502" height="121" fill="black">
<rect fill="white" width="502" height="121"/>
<path d="M152.6 47.768C149.059 47.768 145.795 47.2133 142.808 46.104C139.864 44.952 137.283 43.3307 135.064 41.24C132.888 39.1493 131.182 36.696 129.944 33.88C128.75 31.064 128.152 27.9707 128.152 24.6C128.152 21.2293 128.75 18.136 129.944 15.32C131.182 12.504 132.91 10.0507 135.128 7.96C137.347 5.86933 139.95 4.26933 142.936 3.16C145.923 2.008 149.208 1.432 152.792 1.432C156.76 1.432 160.323 2.09333 163.48 3.416C166.68 4.73866 169.368 6.65866 171.544 9.176L164.888 15.32C163.267 13.6133 161.496 12.3547 159.576 11.544C157.656 10.6907 155.566 10.264 153.304 10.264C151.128 10.264 149.144 10.6053 147.352 11.288C145.56 11.9707 144.003 12.952 142.68 14.232C141.4 15.512 140.398 17.0267 139.672 18.776C138.99 20.5253 138.648 22.4667 138.648 24.6C138.648 26.6907 138.99 28.6107 139.672 30.36C140.398 32.1093 141.4 33.6453 142.68 34.968C144.003 36.248 145.539 37.2293 147.288 37.912C149.08 38.5947 151.043 38.936 153.176 38.936C155.224 38.936 157.208 38.616 159.128 37.976C161.091 37.2933 162.99 36.1627 164.824 34.584L170.712 42.072C168.28 43.9067 165.443 45.3147 162.2 46.296C159 47.2773 155.8 47.768 152.6 47.768ZM161.24 40.728V23.896H170.712V42.072L161.24 40.728ZM189.879 20.248H211.447V28.312H189.879V20.248ZM190.647 38.68H215.031V47H180.343V2.2H214.199V10.52H190.647V38.68ZM232.561 47V10.648H218.225V2.2H257.265V10.648H242.929V47H232.561ZM275.08 47L295.048 2.2H305.288L325.32 47H314.44L298.056 7.448H302.152L285.704 47H275.08ZM285.064 37.4L287.816 29.528H310.856L313.672 37.4H285.064ZM329.968 47V2.2H338.544L364.976 34.456H360.816V2.2H371.056V47H362.544L336.048 14.744H340.208V47H329.968Z"/>
<path d="M1.34325 119V74.2H11.7113V119H1.34325ZM22.3433 119V74.2H30.9193L57.3513 106.456H53.1912V74.2H63.4313V119H54.9193L28.4233 86.744H32.5833V119H22.3433ZM83.3108 119V82.648H68.9748V74.2H108.015V82.648H93.6788V119H83.3108ZM123.129 92.248H144.697V100.312H123.129V92.248ZM123.897 110.68H148.281V119H113.593V74.2H147.449V82.52H123.897V110.68ZM156.531 119V74.2H175.923C179.933 74.2 183.389 74.8613 186.291 76.184C189.192 77.464 191.432 79.32 193.011 81.752C194.589 84.184 195.379 87.0853 195.379 90.456C195.379 93.784 194.589 96.664 193.011 99.096C191.432 101.485 189.192 103.32 186.291 104.6C183.389 105.88 179.933 106.52 175.923 106.52H162.291L166.899 101.976V119H156.531ZM185.011 119L173.811 102.744H184.883L196.211 119H185.011ZM166.899 103.128L162.291 98.264H175.347C178.547 98.264 180.936 97.5813 182.515 96.216C184.093 94.808 184.883 92.888 184.883 90.456C184.883 87.9813 184.093 86.0613 182.515 84.696C180.936 83.3307 178.547 82.648 175.347 82.648H162.291L166.899 77.72V103.128ZM217.033 119L197.705 74.2H208.905L225.801 113.88H219.209L236.361 74.2H246.665L227.273 119H217.033ZM259.942 92.248H281.51V100.312H259.942V92.248ZM260.71 110.68H285.094V119H250.406V74.2H284.262V82.52H260.71V110.68ZM293.343 119V74.2H301.919L328.351 106.456H324.191V74.2H334.431V119H325.919L299.423 86.744H303.583V119H293.343ZM354.311 119V82.648H339.975V74.2H379.015V82.648H364.679V119H354.311ZM384.593 119V74.2H394.961V119H384.593ZM427.353 119.768C423.812 119.768 420.527 119.192 417.497 118.04C414.511 116.888 411.908 115.267 409.689 113.176C407.513 111.085 405.807 108.632 404.569 105.816C403.375 103 402.777 99.928 402.777 96.6C402.777 93.272 403.375 90.2 404.569 87.384C405.807 84.568 407.535 82.1147 409.753 80.024C411.972 77.9333 414.575 76.312 417.561 75.16C420.548 74.008 423.791 73.432 427.289 73.432C430.831 73.432 434.073 74.008 437.017 75.16C440.004 76.312 442.585 77.9333 444.761 80.024C446.98 82.1147 448.708 84.568 449.945 87.384C451.183 90.1573 451.801 93.2293 451.801 96.6C451.801 99.928 451.183 103.021 449.945 105.88C448.708 108.696 446.98 111.149 444.761 113.24C442.585 115.288 440.004 116.888 437.017 118.04C434.073 119.192 430.852 119.768 427.353 119.768ZM427.289 110.936C429.295 110.936 431.129 110.595 432.793 109.912C434.5 109.229 435.993 108.248 437.273 106.968C438.553 105.688 439.535 104.173 440.217 102.424C440.943 100.675 441.305 98.7333 441.305 96.6C441.305 94.4667 440.943 92.5253 440.217 90.776C439.535 89.0267 438.553 87.512 437.273 86.232C436.036 84.952 434.564 83.9707 432.857 83.288C431.151 82.6053 429.295 82.264 427.289 82.264C425.284 82.264 423.428 82.6053 421.721 83.288C420.057 83.9707 418.585 84.952 417.305 86.232C416.025 87.512 415.023 89.0267 414.297 90.776C413.615 92.5253 413.273 94.4667 413.273 96.6C413.273 98.6907 413.615 100.632 414.297 102.424C415.023 104.173 416.004 105.688 417.241 106.968C418.521 108.248 420.015 109.229 421.721 109.912C423.428 110.595 425.284 110.936 427.289 110.936ZM459.593 119V74.2H468.169L494.601 106.456H490.441V74.2H500.681V119H492.169L465.673 86.744H469.833V119H459.593Z"/>
</mask>
<path d="M1.34325 119V74.2H11.7113V119H1.34325ZM22.3433 119V74.2H30.9193L57.3513 106.456H53.1912V74.2H63.4313V119H54.9193L28.4233 86.744H32.5833V119H22.3433ZM83.3108 119V82.648H68.9748V74.2H108.015V82.648H93.6788V119H83.3108ZM123.129 92.248H144.697V100.312H123.129V92.248ZM123.897 110.68H148.281V119H113.593V74.2H147.449V82.52H123.897V110.68ZM156.531 119V74.2H175.923C179.933 74.2 183.389 74.8613 186.291 76.184C189.192 77.464 191.432 79.32 193.011 81.752C194.589 84.184 195.379 87.0853 195.379 90.456C195.379 93.784 194.589 96.664 193.011 99.096C191.432 101.485 189.192 103.32 186.291 104.6C183.389 105.88 179.933 106.52 175.923 106.52H162.291L166.899 101.976V119H156.531ZM185.011 119L173.811 102.744H184.883L196.211 119H185.011ZM166.899 103.128L162.291 98.264H175.347C178.547 98.264 180.936 97.5813 182.515 96.216C184.093 94.808 184.883 92.888 184.883 90.456C184.883 87.9813 184.093 86.0613 182.515 84.696C180.936 83.3307 178.547 82.648 175.347 82.648H162.291L166.899 77.72V103.128ZM217.033 119L197.705 74.2H208.905L225.801 113.88H219.209L236.361 74.2H246.665L227.273 119H217.033ZM259.942 92.248H281.51V100.312H259.942V92.248ZM260.71 110.68H285.094V119H250.406V74.2H284.262V82.52H260.71V110.68ZM293.343 119V74.2H301.919L328.351 106.456H324.191V74.2H334.431V119H325.919L299.423 86.744H303.583V119H293.343ZM354.311 119V82.648H339.975V74.2H379.015V82.648H364.679V119H354.311ZM384.593 119V74.2H394.961V119H384.593ZM427.353 119.768C423.812 119.768 420.527 119.192 417.497 118.04C414.511 116.888 411.908 115.267 409.689 113.176C407.513 111.085 405.807 108.632 404.569 105.816C403.375 103 402.777 99.928 402.777 96.6C402.777 93.272 403.375 90.2 404.569 87.384C405.807 84.568 407.535 82.1147 409.753 80.024C411.972 77.9333 414.575 76.312 417.561 75.16C420.548 74.008 423.791 73.432 427.289 73.432C430.831 73.432 434.073 74.008 437.017 75.16C440.004 76.312 442.585 77.9333 444.761 80.024C446.98 82.1147 448.708 84.568 449.945 87.384C451.183 90.1573 451.801 93.2293 451.801 96.6C451.801 99.928 451.183 103.021 449.945 105.88C448.708 108.696 446.98 111.149 444.761 113.24C442.585 115.288 440.004 116.888 437.017 118.04C434.073 119.192 430.852 119.768 427.353 119.768ZM427.289 110.936C429.295 110.936 431.129 110.595 432.793 109.912C434.5 109.229 435.993 108.248 437.273 106.968C438.553 105.688 439.535 104.173 440.217 102.424C440.943 100.675 441.305 98.7333 441.305 96.6C441.305 94.4667 440.943 92.5253 440.217 90.776C439.535 89.0267 438.553 87.512 437.273 86.232C436.036 84.952 434.564 83.9707 432.857 83.288C431.151 82.6053 429.295 82.264 427.289 82.264C425.284 82.264 423.428 82.6053 421.721 83.288C420.057 83.9707 418.585 84.952 417.305 86.232C416.025 87.512 415.023 89.0267 414.297 90.776C413.615 92.5253 413.273 94.4667 413.273 96.6C413.273 98.6907 413.615 100.632 414.297 102.424C415.023 104.173 416.004 105.688 417.241 106.968C418.521 108.248 420.015 109.229 421.721 109.912C423.428 110.595 425.284 110.936 427.289 110.936ZM459.593 119V74.2H468.169L494.601 106.456H490.441V74.2H500.681V119H492.169L465.673 86.744H469.833V119H459.593Z" fill="white"/>
<path d="M142.808 46.104L142.444 47.0352L142.452 47.0384L142.46 47.0414L142.808 46.104ZM135.064 41.24L134.371 41.9611L134.378 41.9678L135.064 41.24ZM129.944 33.88L129.024 34.2706L129.029 34.2823L129.944 33.88ZM129.944 15.32L129.029 14.9177L129.024 14.9294L129.944 15.32ZM135.128 7.96L135.814 8.68779L135.128 7.96ZM142.936 3.16L143.284 4.09749L143.296 4.093L142.936 3.16ZM163.48 3.416L163.094 4.33834L163.098 4.34016L163.48 3.416ZM171.544 9.176L172.223 9.9108L172.934 9.2543L172.301 8.52205L171.544 9.176ZM164.888 15.32L164.163 16.0087L164.842 16.7234L165.567 16.0548L164.888 15.32ZM159.576 11.544L159.17 12.4578L159.179 12.4616L159.187 12.4652L159.576 11.544ZM142.68 14.232L141.985 13.5134L141.979 13.5191L141.973 13.5249L142.68 14.232ZM139.672 18.776L138.749 18.393L138.744 18.4027L138.741 18.4125L139.672 18.776ZM139.672 30.36L138.741 30.7235L138.744 30.7333L138.749 30.743L139.672 30.36ZM142.68 34.968L141.962 35.6634L141.973 35.6752L141.985 35.6866L142.68 34.968ZM147.288 37.912L146.925 38.8436L146.932 38.8465L147.288 37.912ZM159.128 37.976L159.445 38.9248L159.457 38.9205L159.128 37.976ZM164.824 34.584L165.61 33.9659L164.964 33.1443L164.172 33.826L164.824 34.584ZM170.712 42.072L171.314 42.8703L172.129 42.2559L171.498 41.4539L170.712 42.072ZM162.2 46.296L161.911 45.3389L161.907 45.3399L162.2 46.296ZM161.24 40.728H160.24V41.5961L161.1 41.7181L161.24 40.728ZM161.24 23.896V22.896H160.24V23.896H161.24ZM170.712 23.896H171.712V22.896H170.712V23.896ZM170.712 42.072L170.572 43.0621L171.712 43.2239V42.072H170.712ZM152.6 46.768C149.165 46.768 146.02 46.2302 143.156 45.1666L142.46 47.0414C145.57 48.1965 148.953 48.768 152.6 48.768V46.768ZM143.173 45.1728C140.343 44.0656 137.872 42.5119 135.75 40.5122L134.378 41.9678C136.694 44.1495 139.385 45.8384 142.444 47.0352L143.173 45.1728ZM135.757 40.5189C133.677 38.5207 132.045 36.1763 130.86 33.4777L129.029 34.2823C130.318 37.2157 132.099 39.778 134.371 41.9611L135.757 40.5189ZM130.865 33.4894C129.728 30.809 129.152 27.8502 129.152 24.6H127.152C127.152 28.0911 127.771 31.319 129.024 34.2705L130.865 33.4894ZM129.152 24.6C129.152 21.3498 129.728 18.391 130.865 15.7105L129.024 14.9294C127.771 17.881 127.152 21.1089 127.152 24.6H129.152ZM130.86 15.7223C132.044 13.028 133.694 10.6856 135.814 8.68779L134.442 7.23221C132.125 9.41572 130.32 11.98 129.029 14.9177L130.86 15.7223ZM135.814 8.68779C137.931 6.69301 140.417 5.16231 143.284 4.09742L142.588 2.22257C139.482 3.37635 136.763 5.04565 134.442 7.23221L135.814 8.68779ZM143.296 4.093C146.155 2.99027 149.317 2.432 152.792 2.432V0.431999C149.1 0.431999 145.691 1.02573 142.576 2.22699L143.296 4.093ZM152.792 2.432C156.648 2.432 160.077 3.07443 163.094 4.33834L163.867 2.49366C160.569 1.11223 156.872 0.431999 152.792 0.431999V2.432ZM163.098 4.34016C166.16 5.60571 168.718 7.43553 170.788 9.82995L172.301 8.52205C170.019 5.8818 167.2 3.87161 163.862 2.49183L163.098 4.34016ZM170.866 8.44119L164.21 14.5852L165.567 16.0548L172.223 9.9108L170.866 8.44119ZM165.613 14.6312C163.909 12.8377 162.027 11.4935 159.965 10.6227L159.187 12.4652C160.965 13.2158 162.624 14.389 164.163 16.0087L165.613 14.6312ZM159.982 10.6302C157.925 9.71579 155.695 9.264 153.304 9.264V11.264C155.436 11.264 157.387 11.6655 159.17 12.4578L159.982 10.6302ZM153.304 9.264C151.023 9.264 148.916 9.6221 146.996 10.3535L147.708 12.2225C149.372 11.5886 151.234 11.264 153.304 11.264V9.264ZM146.996 10.3535C145.083 11.0823 143.409 12.1352 141.985 13.5134L143.376 14.9506C144.597 13.7688 146.037 12.859 147.708 12.2225L146.996 10.3535ZM141.973 13.5249C140.596 14.9019 139.522 16.5281 138.749 18.393L140.596 19.159C141.273 17.5252 142.204 16.1221 143.387 14.9391L141.973 13.5249ZM138.741 18.4125C138.007 20.2923 137.648 22.3591 137.648 24.6H139.648C139.648 22.5743 139.972 20.7583 140.604 19.1395L138.741 18.4125ZM137.648 24.6C137.648 26.801 138.008 28.8459 138.741 30.7235L140.604 29.9965C139.971 28.3754 139.648 26.5803 139.648 24.6H137.648ZM138.749 30.743C139.521 32.605 140.592 34.2478 141.962 35.6634L143.399 34.2726C142.209 33.0429 141.275 31.6136 140.596 29.977L138.749 30.743ZM141.985 35.6866C143.405 37.0608 145.054 38.1137 146.925 38.8436L147.652 36.9804C146.024 36.345 144.601 35.4352 143.376 34.2494L141.985 35.6866ZM146.932 38.8465C148.85 39.5771 150.935 39.936 153.176 39.936V37.936C151.151 37.936 149.31 37.6123 147.644 36.9775L146.932 38.8465ZM153.176 39.936C155.33 39.936 157.421 39.5991 159.444 38.9247L158.812 37.0273C156.995 37.6329 155.118 37.936 153.176 37.936V39.936ZM159.457 38.9205C161.556 38.1903 163.562 36.9893 165.477 35.342L164.172 33.826C162.417 35.336 160.626 36.3963 158.8 37.0315L159.457 38.9205ZM164.038 35.2021L169.926 42.6901L171.498 41.4539L165.61 33.9659L164.038 35.2021ZM170.11 41.2737C167.782 43.0299 165.053 44.3878 161.911 45.3389L162.49 47.2531C165.833 46.2415 168.779 44.7834 171.314 42.8703L170.11 41.2737ZM161.907 45.3399C158.798 46.2935 155.696 46.768 152.6 46.768V48.768C155.904 48.768 159.203 48.2612 162.493 47.2521L161.907 45.3399ZM162.24 40.728V23.896H160.24V40.728H162.24ZM161.24 24.896H170.712V22.896H161.24V24.896ZM169.712 23.896V42.072H171.712V23.896H169.712ZM170.853 41.0819L161.381 39.7379L161.1 41.7181L170.572 43.0621L170.853 41.0819ZM189.879 20.248V19.248H188.879V20.248H189.879ZM211.447 20.248H212.447V19.248H211.447V20.248ZM211.447 28.312V29.312H212.447V28.312H211.447ZM189.879 28.312H188.879V29.312H189.879V28.312ZM190.647 38.68H189.647V39.68H190.647V38.68ZM215.031 38.68H216.031V37.68H215.031V38.68ZM215.031 47V48H216.031V47H215.031ZM180.343 47H179.343V48H180.343V47ZM180.343 2.2V1.2H179.343V2.2H180.343ZM214.199 2.2H215.199V1.2H214.199V2.2ZM214.199 10.52V11.52H215.199V10.52H214.199ZM190.647 10.52V9.52H189.647V10.52H190.647ZM189.879 21.248H211.447V19.248H189.879V21.248ZM210.447 20.248V28.312H212.447V20.248H210.447ZM211.447 27.312H189.879V29.312H211.447V27.312ZM190.879 28.312V20.248H188.879V28.312H190.879ZM190.647 39.68H215.031V37.68H190.647V39.68ZM214.031 38.68V47H216.031V38.68H214.031ZM215.031 46H180.343V48H215.031V46ZM181.343 47V2.2H179.343V47H181.343ZM180.343 3.2H214.199V1.2H180.343V3.2ZM213.199 2.2V10.52H215.199V2.2H213.199ZM214.199 9.52H190.647V11.52H214.199V9.52ZM189.647 10.52V38.68H191.647V10.52H189.647ZM232.561 47H231.561V48H232.561V47ZM232.561 10.648H233.561V9.648H232.561V10.648ZM218.225 10.648H217.225V11.648H218.225V10.648ZM218.225 2.2V1.2H217.225V2.2H218.225ZM257.265 2.2H258.265V1.2H257.265V2.2ZM257.265 10.648V11.648H258.265V10.648H257.265ZM242.929 10.648V9.648H241.929V10.648H242.929ZM242.929 47V48H243.929V47H242.929ZM233.561 47V10.648H231.561V47H233.561ZM232.561 9.648H218.225V11.648H232.561V9.648ZM219.225 10.648V2.2H217.225V10.648H219.225ZM218.225 3.2H257.265V1.2H218.225V3.2ZM256.265 2.2V10.648H258.265V2.2H256.265ZM257.265 9.648H242.929V11.648H257.265V9.648ZM241.929 10.648V47H243.929V10.648H241.929ZM242.929 46H232.561V48H242.929V46ZM275.08 47L274.167 46.5929L273.54 48H275.08V47ZM295.048 2.2V1.2H294.399L294.135 1.79289L295.048 2.2ZM305.288 2.2L306.201 1.7918L305.937 1.2H305.288V2.2ZM325.32 47V48H326.863L326.233 46.5918L325.32 47ZM314.44 47L313.516 47.3827L313.772 48H314.44V47ZM298.056 7.448V6.448H296.56L297.132 7.8307L298.056 7.448ZM302.152 7.448L303.076 7.83198L303.651 6.448H302.152V7.448ZM285.704 47V48H286.371L286.628 47.384L285.704 47ZM285.064 37.4L284.12 37.07L283.655 38.4H285.064V37.4ZM287.816 29.528V28.528H287.107L286.872 29.198L287.816 29.528ZM310.856 29.528L311.798 29.1912L311.561 28.528H310.856V29.528ZM313.672 37.4V38.4H315.092L314.614 37.0632L313.672 37.4ZM275.994 47.4071L295.962 2.6071L294.135 1.79289L274.167 46.5929L275.994 47.4071ZM295.048 3.2H305.288V1.2H295.048V3.2ZM304.375 2.60819L324.407 47.4082L326.233 46.5918L306.201 1.7918L304.375 2.60819ZM325.32 46H314.44V48H325.32V46ZM315.364 46.6173L298.98 7.06529L297.132 7.8307L313.516 47.3827L315.364 46.6173ZM298.056 8.448H302.152V6.448H298.056V8.448ZM301.229 7.06402L284.781 46.616L286.628 47.384L303.076 7.83198L301.229 7.06402ZM285.704 46H275.08V48H285.704V46ZM286.008 37.73L288.76 29.858L286.872 29.198L284.12 37.07L286.008 37.73ZM287.816 30.528H310.856V28.528H287.816V30.528ZM309.915 29.8648L312.731 37.7368L314.614 37.0632L311.798 29.1912L309.915 29.8648ZM313.672 36.4H285.064V38.4H313.672V36.4ZM329.968 47H328.968V48H329.968V47ZM329.968 2.2V1.2H328.968V2.2H329.968ZM338.544 2.2L339.318 1.56617L339.018 1.2H338.544V2.2ZM364.976 34.456V35.456H367.089L365.75 33.8222L364.976 34.456ZM360.816 34.456H359.816V35.456H360.816V34.456ZM360.816 2.2V1.2H359.816V2.2H360.816ZM371.056 2.2H372.056V1.2H371.056V2.2ZM371.056 47V48H372.056V47H371.056ZM362.544 47L361.772 47.6347L362.072 48H362.544V47ZM336.048 14.744V13.744H333.933L335.276 15.3787L336.048 14.744ZM340.208 14.744H341.208V13.744H340.208V14.744ZM340.208 47V48H341.208V47H340.208ZM330.968 47V2.2H328.968V47H330.968ZM329.968 3.2H338.544V1.2H329.968V3.2ZM337.771 2.83382L364.203 35.0898L365.75 33.8222L339.318 1.56617L337.771 2.83382ZM364.976 33.456H360.816V35.456H364.976V33.456ZM361.816 34.456V2.2H359.816V34.456H361.816ZM360.816 3.2H371.056V1.2H360.816V3.2ZM370.056 2.2V47H372.056V2.2H370.056ZM371.056 46H362.544V48H371.056V46ZM363.317 46.3653L336.821 14.1093L335.276 15.3787L361.772 47.6347L363.317 46.3653ZM336.048 15.744H340.208V13.744H336.048V15.744ZM339.208 14.744V47H341.208V14.744H339.208ZM340.208 46H329.968V48H340.208V46ZM1.34325 119H0.34325V120H1.34325V119ZM1.34325 74.2V73.2H0.34325V74.2H1.34325ZM11.7113 74.2H12.7113V73.2H11.7113V74.2ZM11.7113 119V120H12.7113V119H11.7113ZM2.34325 119V74.2H0.34325V119H2.34325ZM1.34325 75.2H11.7113V73.2H1.34325V75.2ZM10.7113 74.2V119H12.7113V74.2H10.7113ZM11.7113 118H1.34325V120H11.7113V118ZM22.3433 119H21.3433V120H22.3433V119ZM22.3433 74.2V73.2H21.3433V74.2H22.3433ZM30.9193 74.2L31.6927 73.5662L31.3927 73.2H30.9193V74.2ZM57.3513 106.456V107.456H59.4636L58.1247 105.822L57.3513 106.456ZM53.1913 106.456H52.1913V107.456H53.1913V106.456ZM53.1913 74.2V73.2H52.1913V74.2H53.1913ZM63.4313 74.2H64.4313V73.2H63.4313V74.2ZM63.4313 119V120H64.4313V119H63.4313ZM54.9193 119L54.1465 119.635L54.4466 120H54.9193V119ZM28.4232 86.744V85.744H26.3077L27.6505 87.3787L28.4232 86.744ZM32.5833 86.744H33.5833V85.744H32.5833V86.744ZM32.5833 119V120H33.5833V119H32.5833ZM23.3433 119V74.2H21.3433V119H23.3433ZM22.3433 75.2H30.9193V73.2H22.3433V75.2ZM30.1458 74.8338L56.5778 107.09L58.1247 105.822L31.6927 73.5662L30.1458 74.8338ZM57.3513 105.456H53.1913V107.456H57.3513V105.456ZM54.1913 106.456V74.2H52.1913V106.456H54.1913ZM53.1913 75.2H63.4313V73.2H53.1913V75.2ZM62.4313 74.2V119H64.4313V74.2H62.4313ZM63.4313 118H54.9193V120H63.4313V118ZM55.692 118.365L29.196 86.1093L27.6505 87.3787L54.1465 119.635L55.692 118.365ZM28.4232 87.744H32.5833V85.744H28.4232V87.744ZM31.5833 86.744V119H33.5833V86.744H31.5833ZM32.5833 118H22.3433V120H32.5833V118ZM83.3108 119H82.3108V120H83.3108V119ZM83.3108 82.648H84.3108V81.648H83.3108V82.648ZM68.9747 82.648H67.9747V83.648H68.9747V82.648ZM68.9747 74.2V73.2H67.9747V74.2H68.9747ZM108.015 74.2H109.015V73.2H108.015V74.2ZM108.015 82.648V83.648H109.015V82.648H108.015ZM93.6788 82.648V81.648H92.6788V82.648H93.6788ZM93.6788 119V120H94.6788V119H93.6788ZM84.3108 119V82.648H82.3108V119H84.3108ZM83.3108 81.648H68.9747V83.648H83.3108V81.648ZM69.9747 82.648V74.2H67.9747V82.648H69.9747ZM68.9747 75.2H108.015V73.2H68.9747V75.2ZM107.015 74.2V82.648H109.015V74.2H107.015ZM108.015 81.648H93.6788V83.648H108.015V81.648ZM92.6788 82.648V119H94.6788V82.648H92.6788ZM93.6788 118H83.3108V120H93.6788V118ZM123.129 92.248V91.248H122.129V92.248H123.129ZM144.697 92.248H145.697V91.248H144.697V92.248ZM144.697 100.312V101.312H145.697V100.312H144.697ZM123.129 100.312H122.129V101.312H123.129V100.312ZM123.897 110.68H122.897V111.68H123.897V110.68ZM148.281 110.68H149.281V109.68H148.281V110.68ZM148.281 119V120H149.281V119H148.281ZM113.593 119H112.593V120H113.593V119ZM113.593 74.2V73.2H112.593V74.2H113.593ZM147.449 74.2H148.449V73.2H147.449V74.2ZM147.449 82.52V83.52H148.449V82.52H147.449ZM123.897 82.52V81.52H122.897V82.52H123.897ZM123.129 93.248H144.697V91.248H123.129V93.248ZM143.697 92.248V100.312H145.697V92.248H143.697ZM144.697 99.312H123.129V101.312H144.697V99.312ZM124.129 100.312V92.248H122.129V100.312H124.129ZM123.897 111.68H148.281V109.68H123.897V111.68ZM147.281 110.68V119H149.281V110.68H147.281ZM148.281 118H113.593V120H148.281V118ZM114.593 119V74.2H112.593V119H114.593ZM113.593 75.2H147.449V73.2H113.593V75.2ZM146.449 74.2V82.52H148.449V74.2H146.449ZM147.449 81.52H123.897V83.52H147.449V81.52ZM122.897 82.52V110.68H124.897V82.52H122.897ZM156.531 119H155.531V120H156.531V119ZM156.531 74.2V73.2H155.531V74.2H156.531ZM186.291 76.184L185.876 77.094L185.887 77.0989L186.291 76.184ZM193.011 81.752L192.172 82.2965L193.011 81.752ZM193.011 99.096L193.845 99.6473L193.85 99.6405L193.011 99.096ZM186.291 104.6L186.694 105.515L186.291 104.6ZM162.291 106.52L161.589 105.808L159.852 107.52H162.291V106.52ZM166.899 101.976H167.899V99.5855L166.197 101.264L166.899 101.976ZM166.899 119V120H167.899V119H166.899ZM185.011 119L184.187 119.567L184.485 120H185.011V119ZM173.811 102.744V101.744H171.907L172.987 103.311L173.811 102.744ZM184.883 102.744L185.703 102.172L185.405 101.744H184.883V102.744ZM196.211 119V120H198.126L197.031 118.428L196.211 119ZM166.899 103.128L166.173 103.816L167.899 105.638V103.128H166.899ZM162.291 98.264V97.264H159.966L161.565 98.9517L162.291 98.264ZM182.515 96.216L183.169 96.9724L183.175 96.9674L183.18 96.9623L182.515 96.216ZM162.291 82.648L161.56 81.965L159.987 83.648H162.291V82.648ZM166.899 77.72H167.899V75.1864L166.168 77.037L166.899 77.72ZM157.531 119V74.2H155.531V119H157.531ZM156.531 75.2H175.923V73.2H156.531V75.2ZM175.923 75.2C179.826 75.2 183.134 75.8438 185.876 77.0939L186.706 75.2741C183.645 73.8788 180.041 73.2 175.923 73.2V75.2ZM185.887 77.0989C188.628 78.3081 190.709 80.0429 192.172 82.2965L193.85 81.2075C192.155 78.5971 189.756 76.6199 186.694 75.2691L185.887 77.0989ZM192.172 82.2965C193.629 84.5414 194.379 87.2465 194.379 90.456H196.379C196.379 86.9242 195.55 83.8266 193.85 81.2075L192.172 82.2965ZM194.379 90.456C194.379 93.62 193.631 96.3046 192.172 98.5515L193.85 99.6405C195.548 97.0234 196.379 93.948 196.379 90.456H194.379ZM192.176 98.5447C190.715 100.757 188.632 102.474 185.887 103.685L186.694 105.515C189.752 104.166 192.15 102.214 193.845 99.6473L192.176 98.5447ZM185.887 103.685C183.142 104.896 179.83 105.52 175.923 105.52V107.52C180.037 107.52 183.637 106.864 186.694 105.515L185.887 103.685ZM175.923 105.52H162.291V107.52H175.923V105.52ZM162.993 107.232L167.601 102.688L166.197 101.264L161.589 105.808L162.993 107.232ZM165.899 101.976V119H167.899V101.976H165.899ZM166.899 118H156.531V120H166.899V118ZM185.834 118.433L174.634 102.177L172.987 103.311L184.187 119.567L185.834 118.433ZM173.811 103.744H184.883V101.744H173.811V103.744ZM184.062 103.316L195.39 119.572L197.031 118.428L185.703 102.172L184.062 103.316ZM196.211 118H185.011V120H196.211V118ZM167.625 102.44L163.017 97.5763L161.565 98.9517L166.173 103.816L167.625 102.44ZM162.291 99.264H175.347V97.264H162.291V99.264ZM175.347 99.264C178.664 99.264 181.333 98.5599 183.169 96.9724L181.861 95.4596C180.539 96.6027 178.429 97.264 175.347 97.264V99.264ZM183.18 96.9623C185.005 95.3353 185.883 93.1259 185.883 90.456H183.883C183.883 92.6501 183.182 94.2807 181.849 95.4697L183.18 96.9623ZM185.883 90.456C185.883 87.7503 185.008 85.5306 183.169 83.9396L181.861 85.4524C183.178 86.5921 183.883 88.2124 183.883 90.456H185.883ZM183.169 83.9396C181.333 82.3521 178.664 81.648 175.347 81.648V83.648C178.429 83.648 180.539 84.3093 181.861 85.4524L183.169 83.9396ZM175.347 81.648H162.291V83.648H175.347V81.648ZM163.021 83.331L167.629 78.403L166.168 77.037L161.56 81.965L163.021 83.331ZM165.899 77.72V103.128H167.899V77.72H165.899ZM217.033 119L216.115 119.396L216.376 120H217.033V119ZM197.705 74.2V73.2H196.185L196.787 74.5961L197.705 74.2ZM208.905 74.2L209.825 73.8082L209.566 73.2H208.905V74.2ZM225.801 113.88V114.88H227.314L226.721 113.488L225.801 113.88ZM219.209 113.88L218.291 113.483L217.688 114.88H219.209V113.88ZM236.361 74.2V73.2H235.704L235.443 73.8032L236.361 74.2ZM246.665 74.2L247.583 74.5972L248.188 73.2H246.665V74.2ZM227.273 119V120H227.93L228.191 119.397L227.273 119ZM217.951 118.604L198.623 73.8039L196.787 74.5961L216.115 119.396L217.951 118.604ZM197.705 75.2H208.905V73.2H197.705V75.2ZM207.985 74.5918L224.881 114.272L226.721 113.488L209.825 73.8082L207.985 74.5918ZM225.801 112.88H219.209V114.88H225.801V112.88ZM220.127 114.277L237.279 74.5968L235.443 73.8032L218.291 113.483L220.127 114.277ZM236.361 75.2H246.665V73.2H236.361V75.2ZM245.748 73.8028L226.356 118.603L228.191 119.397L247.583 74.5972L245.748 73.8028ZM227.273 118H217.033V120H227.273V118ZM259.942 92.248V91.248H258.942V92.248H259.942ZM281.51 92.248H282.51V91.248H281.51V92.248ZM281.51 100.312V101.312H282.51V100.312H281.51ZM259.942 100.312H258.942V101.312H259.942V100.312ZM260.71 110.68H259.71V111.68H260.71V110.68ZM285.094 110.68H286.094V109.68H285.094V110.68ZM285.094 119V120H286.094V119H285.094ZM250.406 119H249.406V120H250.406V119ZM250.406 74.2V73.2H249.406V74.2H250.406ZM284.262 74.2H285.262V73.2H284.262V74.2ZM284.262 82.52V83.52H285.262V82.52H284.262ZM260.71 82.52V81.52H259.71V82.52H260.71ZM259.942 93.248H281.51V91.248H259.942V93.248ZM280.51 92.248V100.312H282.51V92.248H280.51ZM281.51 99.312H259.942V101.312H281.51V99.312ZM260.942 100.312V92.248H258.942V100.312H260.942ZM260.71 111.68H285.094V109.68H260.71V111.68ZM284.094 110.68V119H286.094V110.68H284.094ZM285.094 118H250.406V120H285.094V118ZM251.406 119V74.2H249.406V119H251.406ZM250.406 75.2H284.262V73.2H250.406V75.2ZM283.262 74.2V82.52H285.262V74.2H283.262ZM284.262 81.52H260.71V83.52H284.262V81.52ZM259.71 82.52V110.68H261.71V82.52H259.71ZM293.343 119H292.343V120H293.343V119ZM293.343 74.2V73.2H292.343V74.2H293.343ZM301.919 74.2L302.693 73.5662L302.393 73.2H301.919V74.2ZM328.351 106.456V107.456H330.464L329.125 105.822L328.351 106.456ZM324.191 106.456H323.191V107.456H324.191V106.456ZM324.191 74.2V73.2H323.191V74.2H324.191ZM334.431 74.2H335.431V73.2H334.431V74.2ZM334.431 119V120H335.431V119H334.431ZM325.919 119L325.147 119.635L325.447 120H325.919V119ZM299.423 86.744V85.744H297.308L298.651 87.3787L299.423 86.744ZM303.583 86.744H304.583V85.744H303.583V86.744ZM303.583 119V120H304.583V119H303.583ZM294.343 119V74.2H292.343V119H294.343ZM293.343 75.2H301.919V73.2H293.343V75.2ZM301.146 74.8338L327.578 107.09L329.125 105.822L302.693 73.5662L301.146 74.8338ZM328.351 105.456H324.191V107.456H328.351V105.456ZM325.191 106.456V74.2H323.191V106.456H325.191ZM324.191 75.2H334.431V73.2H324.191V75.2ZM333.431 74.2V119H335.431V74.2H333.431ZM334.431 118H325.919V120H334.431V118ZM326.692 118.365L300.196 86.1093L298.651 87.3787L325.147 119.635L326.692 118.365ZM299.423 87.744H303.583V85.744H299.423V87.744ZM302.583 86.744V119H304.583V86.744H302.583ZM303.583 118H293.343V120H303.583V118ZM354.311 119H353.311V120H354.311V119ZM354.311 82.648H355.311V81.648H354.311V82.648ZM339.975 82.648H338.975V83.648H339.975V82.648ZM339.975 74.2V73.2H338.975V74.2H339.975ZM379.015 74.2H380.015V73.2H379.015V74.2ZM379.015 82.648V83.648H380.015V82.648H379.015ZM364.679 82.648V81.648H363.679V82.648H364.679ZM364.679 119V120H365.679V119H364.679ZM355.311 119V82.648H353.311V119H355.311ZM354.311 81.648H339.975V83.648H354.311V81.648ZM340.975 82.648V74.2H338.975V82.648H340.975ZM339.975 75.2H379.015V73.2H339.975V75.2ZM378.015 74.2V82.648H380.015V74.2H378.015ZM379.015 81.648H364.679V83.648H379.015V81.648ZM363.679 82.648V119H365.679V82.648H363.679ZM364.679 118H354.311V120H364.679V118ZM384.593 119H383.593V120H384.593V119ZM384.593 74.2V73.2H383.593V74.2H384.593ZM394.961 74.2H395.961V73.2H394.961V74.2ZM394.961 119V120H395.961V119H394.961ZM385.593 119V74.2H383.593V119H385.593ZM384.593 75.2H394.961V73.2H384.593V75.2ZM393.961 74.2V119H395.961V74.2H393.961ZM394.961 118H384.593V120H394.961V118ZM417.497 118.04L417.137 118.973L417.142 118.975L417.497 118.04ZM409.689 113.176L408.996 113.897L409.003 113.904L409.689 113.176ZM404.569 105.816L403.649 106.207L403.654 106.218L404.569 105.816ZM404.569 87.384L403.654 86.9817L403.649 86.9934L404.569 87.384ZM417.561 75.16L417.201 74.227L417.561 75.16ZM437.017 75.16L436.653 76.0912L436.657 76.093L437.017 75.16ZM444.761 80.024L444.068 80.7451L444.075 80.7518L444.761 80.024ZM449.945 87.384L449.03 87.7863L449.032 87.7914L449.945 87.384ZM449.945 105.88L450.861 106.282L450.863 106.277L449.945 105.88ZM444.761 113.24L445.447 113.968L445.447 113.968L444.761 113.24ZM437.017 118.04L436.657 117.107L436.653 117.109L437.017 118.04ZM432.793 109.912L432.422 108.983L432.414 108.987L432.793 109.912ZM437.273 106.968L436.566 106.261L437.273 106.968ZM440.217 102.424L439.294 102.041L439.289 102.051L439.286 102.06L440.217 102.424ZM440.217 90.776L439.286 91.1395L439.289 91.1493L439.294 91.159L440.217 90.776ZM437.273 86.232L436.554 86.927L436.56 86.9331L436.566 86.9391L437.273 86.232ZM432.857 83.288L432.486 84.2165L432.857 83.288ZM421.721 83.288L421.35 82.3595L421.342 82.3628L421.721 83.288ZM417.305 86.232L418.012 86.9391L417.305 86.232ZM414.297 90.776L413.374 90.393L413.369 90.4027L413.366 90.4125L414.297 90.776ZM414.297 102.424L413.363 102.78L413.368 102.794L413.374 102.807L414.297 102.424ZM417.241 106.968L416.522 107.663L416.528 107.669L416.534 107.675L417.241 106.968ZM421.721 109.912L421.35 110.84L421.721 109.912ZM427.353 118.768C423.922 118.768 420.758 118.21 417.853 117.105L417.142 118.975C420.295 120.174 423.702 120.768 427.353 120.768V118.768ZM417.857 117.107C414.985 115.999 412.495 114.446 410.375 112.448L409.003 113.904C411.321 116.088 414.036 117.777 417.137 118.973L417.857 117.107ZM410.382 112.455C408.302 110.457 406.671 108.112 405.485 105.414L403.654 106.218C404.943 109.152 406.724 111.714 408.996 113.897L410.382 112.455ZM405.49 105.425C404.352 102.743 403.777 99.8057 403.777 96.6H401.777C401.777 100.05 402.397 103.257 403.649 106.207L405.49 105.425ZM403.777 96.6C403.777 93.3943 404.352 90.4565 405.49 87.7746L403.649 86.9934C402.397 89.9435 401.777 93.1497 401.777 96.6H403.777ZM405.485 87.7863C406.669 85.092 408.319 82.7496 410.439 80.7518L409.067 79.2962C406.75 81.4797 404.945 84.044 403.654 86.9817L405.485 87.7863ZM410.439 80.7518C412.559 78.7544 415.049 77.2007 417.921 76.093L417.201 74.227C414.1 75.4233 411.385 77.1123 409.067 79.2962L410.439 80.7518ZM417.921 76.093C420.783 74.9892 423.902 74.432 427.289 74.432V72.432C423.679 72.432 420.313 73.0268 417.201 74.227L417.921 76.093ZM427.289 74.432C430.721 74.432 433.838 74.9898 436.653 76.0912L437.382 74.2288C434.308 73.0262 430.94 72.432 427.289 72.432V74.432ZM436.657 76.093C439.528 77.2001 441.994 78.752 444.068 80.7451L445.454 79.3029C443.177 77.1147 440.48 75.4239 437.377 74.227L436.657 76.093ZM444.075 80.7518C446.196 82.7496 447.846 85.092 449.03 87.7863L450.861 86.9817C449.57 84.044 447.764 81.4797 445.447 79.2962L444.075 80.7518ZM449.032 87.7914C450.206 90.4231 450.801 93.3542 450.801 96.6H452.801C452.801 93.1045 452.159 89.8916 450.858 86.9766L449.032 87.7914ZM450.801 96.6C450.801 99.8008 450.207 102.758 449.028 105.483L450.863 106.277C452.158 103.285 452.801 100.055 452.801 96.6H450.801ZM449.03 105.478C447.846 108.172 446.196 110.514 444.075 112.512L445.447 113.968C447.764 111.784 449.57 109.22 450.861 106.282L449.03 105.478ZM444.076 112.512C442.001 114.465 439.532 115.998 436.657 117.107L437.377 118.973C440.476 117.778 443.17 116.111 445.447 113.968L444.076 112.512ZM436.653 117.109C433.837 118.211 430.741 118.768 427.353 118.768V120.768C430.963 120.768 434.31 120.173 437.382 118.971L436.653 117.109ZM427.289 111.936C429.41 111.936 431.375 111.575 433.173 110.837L432.414 108.987C430.883 109.615 429.179 109.936 427.289 109.936V111.936ZM433.165 110.84C434.995 110.108 436.603 109.052 437.98 107.675L436.566 106.261C435.383 107.444 434.005 108.35 432.422 108.984L433.165 110.84ZM437.98 107.675C439.362 106.294 440.418 104.661 441.149 102.788L439.286 102.06C438.651 103.686 437.745 105.082 436.566 106.261L437.98 107.675ZM441.141 102.807C441.923 100.922 442.305 98.8482 442.305 96.6H440.305C440.305 98.6185 439.963 100.428 439.294 102.041L441.141 102.807ZM442.305 96.6C442.305 94.3518 441.923 92.2782 441.141 90.393L439.294 91.159C439.963 92.7725 440.305 94.5815 440.305 96.6H442.305ZM441.149 90.4125C440.418 88.5392 439.362 86.9063 437.98 85.5249L436.566 86.9391C437.745 88.1177 438.651 89.5141 439.286 91.1395L441.149 90.4125ZM437.992 85.537C436.654 84.1522 435.062 83.0929 433.229 82.3595L432.486 84.2165C434.066 84.8485 435.418 85.7518 436.554 86.927L437.992 85.537ZM433.229 82.3595C431.394 81.6255 429.41 81.264 427.289 81.264V83.264C429.179 83.264 430.908 83.5852 432.486 84.2165L433.229 82.3595ZM427.289 81.264C425.168 81.264 423.185 81.6255 421.35 82.3595L422.093 84.2165C423.671 83.5852 425.4 83.264 427.289 83.264V81.264ZM421.342 82.3628C419.554 83.0961 417.971 84.1518 416.598 85.5249L418.012 86.9391C419.199 85.7521 420.56 84.8452 422.101 84.2132L421.342 82.3628ZM416.598 85.5249C415.221 86.9019 414.147 88.5281 413.374 90.393L415.221 91.159C415.898 89.5252 416.829 88.1221 418.012 86.9391L416.598 85.5249ZM413.366 90.4125C412.632 92.2923 412.273 94.3591 412.273 96.6H414.273C414.273 94.5743 414.597 92.7583 415.229 91.1395L413.366 90.4125ZM412.273 96.6C412.273 98.8013 412.633 100.864 413.363 102.78L415.232 102.068C414.596 100.4 414.273 98.58 414.273 96.6H412.273ZM413.374 102.807C414.144 104.665 415.192 106.287 416.522 107.663L417.96 106.273C416.816 105.089 415.901 103.682 415.221 102.041L413.374 102.807ZM416.534 107.675C417.911 109.052 419.519 110.108 421.35 110.84L422.093 108.984C420.51 108.35 419.131 107.444 417.948 106.261L416.534 107.675ZM421.35 110.84C423.185 111.575 425.168 111.936 427.289 111.936V109.936C425.4 109.936 423.671 109.615 422.093 108.984L421.35 110.84ZM459.593 119H458.593V120H459.593V119ZM459.593 74.2V73.2H458.593V74.2H459.593ZM468.169 74.2L468.943 73.5662L468.643 73.2H468.169V74.2ZM494.601 106.456V107.456H496.714L495.375 105.822L494.601 106.456ZM490.441 106.456H489.441V107.456H490.441V106.456ZM490.441 74.2V73.2H489.441V74.2H490.441ZM500.681 74.2H501.681V73.2H500.681V74.2ZM500.681 119V120H501.681V119H500.681ZM492.169 119L491.397 119.635L491.697 120H492.169V119ZM465.673 86.744V85.744H463.558L464.901 87.3787L465.673 86.744ZM469.833 86.744H470.833V85.744H469.833V86.744ZM469.833 119V120H470.833V119H469.833ZM460.593 119V74.2H458.593V119H460.593ZM459.593 75.2H468.169V73.2H459.593V75.2ZM467.396 74.8338L493.828 107.09L495.375 105.822L468.943 73.5662L467.396 74.8338ZM494.601 105.456H490.441V107.456H494.601V105.456ZM491.441 106.456V74.2H489.441V106.456H491.441ZM490.441 75.2H500.681V73.2H490.441V75.2ZM499.681 74.2V119H501.681V74.2H499.681ZM500.681 118H492.169V120H500.681V118ZM492.942 118.365L466.446 86.1093L464.901 87.3787L491.397 119.635L492.942 118.365ZM465.673 87.744H469.833V85.744H465.673V87.744ZM468.833 86.744V119H470.833V86.744H468.833ZM469.833 118H459.593V120H469.833V118Z" fill="white" mask="url(#path-1-outside-1_1_330)"/>
</svg>
