<svg width="345" height="29" viewBox="0 0 345 29" fill="none" xmlns="http://www.w3.org/2000/svg">
<mask id="path-1-outside-1_1_145" maskUnits="userSpaceOnUse" x="0" y="0" width="345" height="29" fill="black">
<rect fill="white" width="345" height="29"/>
<path d="M10.036 27L1.792 1.8H7.84L15.004 24.12H11.98L19.468 1.8H24.868L32.068 24.12H29.152L36.496 1.8H42.076L33.832 27H27.568L21.196 7.416H22.852L16.3 27H10.036ZM50.6958 11.952H62.8278V16.488H50.6958V11.952ZM51.1278 22.32H64.8438V27H45.3318V1.8H64.3758V6.48H51.1278V22.32Z"/>
<path d="M90.8754 27.432C87.2994 27.432 84.5034 26.436 82.4874 24.444C80.4714 22.452 79.4634 19.608 79.4634 15.912V1.8H85.2954V15.696C85.2954 18.096 85.7874 19.824 86.7714 20.88C87.7554 21.936 89.1354 22.464 90.9114 22.464C92.6874 22.464 94.0674 21.936 95.0514 20.88C96.0354 19.824 96.5274 18.096 96.5274 15.696V1.8H102.287V15.912C102.287 19.608 101.279 22.452 99.2634 24.444C97.2474 26.436 94.4514 27.432 90.8754 27.432ZM108.051 27V1.8H112.875L127.743 19.944H125.402V1.8H131.163V27H126.375L111.471 8.856H113.811V27H108.051ZM137.125 27V1.8H148.573C151.309 1.8 153.721 2.328 155.809 3.384C157.897 4.416 159.529 5.868 160.705 7.74C161.881 9.612 162.469 11.832 162.469 14.4C162.469 16.944 161.881 19.164 160.705 21.06C159.529 22.932 157.897 24.396 155.809 25.452C153.721 26.484 151.309 27 148.573 27H137.125ZM142.957 22.212H148.285C149.965 22.212 151.417 21.9 152.641 21.276C153.889 20.628 154.849 19.716 155.521 18.54C156.217 17.364 156.565 15.984 156.565 14.4C156.565 12.792 156.217 11.412 155.521 10.26C154.849 9.084 153.889 8.184 152.641 7.56C151.417 6.912 149.965 6.588 148.285 6.588H142.957V22.212ZM172.231 11.952H184.363V16.488H172.231V11.952ZM172.663 22.32H186.379V27H166.867V1.8H185.911V6.48H172.663V22.32ZM191.019 27V1.8H201.927C204.183 1.8 206.127 2.172 207.759 2.916C209.391 3.636 210.651 4.68 211.539 6.048C212.427 7.416 212.871 9.048 212.871 10.944C212.871 12.816 212.427 14.436 211.539 15.804C210.651 17.148 209.391 18.18 207.759 18.9C206.127 19.62 204.183 19.98 201.927 19.98H194.259L196.851 17.424V27H191.019ZM207.039 27L200.739 17.856H206.967L213.339 27H207.039ZM196.851 18.072L194.259 15.336H201.603C203.403 15.336 204.747 14.952 205.635 14.184C206.523 13.392 206.967 12.312 206.967 10.944C206.967 9.552 206.523 8.472 205.635 7.704C204.747 6.936 203.403 6.552 201.603 6.552H194.259L196.851 3.78V18.072ZM225.772 27.432C223.756 27.432 221.824 27.168 219.976 26.64C218.128 26.088 216.64 25.38 215.512 24.516L217.492 20.124C218.572 20.892 219.844 21.528 221.308 22.032C222.796 22.512 224.296 22.752 225.808 22.752C226.96 22.752 227.884 22.644 228.58 22.428C229.3 22.188 229.828 21.864 230.164 21.456C230.5 21.048 230.668 20.58 230.668 20.052C230.668 19.38 230.404 18.852 229.876 18.468C229.348 18.06 228.652 17.736 227.788 17.496C226.924 17.232 225.964 16.992 224.908 16.776C223.876 16.536 222.832 16.248 221.776 15.912C220.744 15.576 219.796 15.144 218.932 14.616C218.068 14.088 217.36 13.392 216.808 12.528C216.28 11.664 216.016 10.56 216.016 9.216C216.016 7.776 216.4 6.468 217.168 5.292C217.96 4.092 219.136 3.144 220.696 2.448C222.28 1.728 224.26 1.368 226.636 1.368C228.22 1.368 229.78 1.56 231.316 1.944C232.852 2.304 234.208 2.856 235.384 3.6L233.584 8.028C232.408 7.356 231.232 6.864 230.056 6.552C228.88 6.216 227.728 6.048 226.6 6.048C225.472 6.048 224.548 6.18 223.828 6.444C223.108 6.708 222.592 7.056 222.28 7.488C221.968 7.896 221.812 8.376 221.812 8.928C221.812 9.576 222.076 10.104 222.604 10.512C223.132 10.896 223.828 11.208 224.692 11.448C225.556 11.688 226.504 11.928 227.536 12.168C228.592 12.408 229.636 12.684 230.668 12.996C231.724 13.308 232.684 13.728 233.548 14.256C234.412 14.784 235.108 15.48 235.636 16.344C236.188 17.208 236.464 18.3 236.464 19.62C236.464 21.036 236.068 22.332 235.276 23.508C234.484 24.684 233.296 25.632 231.712 26.352C230.152 27.072 228.172 27.432 225.772 27.432ZM245.317 27V6.552H237.253V1.8H259.213V6.552H251.149V27H245.317ZM257.774 27L269.006 1.8H274.766L286.034 27H279.914L270.698 4.752H273.002L263.75 27H257.774ZM263.39 21.6L264.938 17.172H277.898L279.482 21.6H263.39ZM288.648 27V1.8H293.472L308.34 19.944H306V1.8H311.76V27H306.972L292.068 8.856H294.408V27H288.648ZM317.722 27V1.8H329.17C331.906 1.8 334.318 2.328 336.406 3.384C338.494 4.416 340.126 5.868 341.302 7.74C342.478 9.612 343.066 11.832 343.066 14.4C343.066 16.944 342.478 19.164 341.302 21.06C340.126 22.932 338.494 24.396 336.406 25.452C334.318 26.484 331.906 27 329.17 27H317.722ZM323.554 22.212H328.882C330.562 22.212 332.014 21.9 333.238 21.276C334.486 20.628 335.446 19.716 336.118 18.54C336.814 17.364 337.162 15.984 337.162 14.4C337.162 12.792 336.814 11.412 336.118 10.26C335.446 9.084 334.486 8.184 333.238 7.56C332.014 6.912 330.562 6.588 328.882 6.588H323.554V22.212Z"/>
</mask>
<path d="M90.8754 27.432C87.2994 27.432 84.5034 26.436 82.4874 24.444C80.4714 22.452 79.4634 19.608 79.4634 15.912V1.8H85.2954V15.696C85.2954 18.096 85.7874 19.824 86.7714 20.88C87.7554 21.936 89.1354 22.464 90.9114 22.464C92.6874 22.464 94.0674 21.936 95.0514 20.88C96.0354 19.824 96.5274 18.096 96.5274 15.696V1.8H102.287V15.912C102.287 19.608 101.279 22.452 99.2634 24.444C97.2474 26.436 94.4514 27.432 90.8754 27.432ZM108.051 27V1.8H112.875L127.743 19.944H125.402V1.8H131.163V27H126.375L111.471 8.856H113.811V27H108.051ZM137.125 27V1.8H148.573C151.309 1.8 153.721 2.328 155.809 3.384C157.897 4.416 159.529 5.868 160.705 7.74C161.881 9.612 162.469 11.832 162.469 14.4C162.469 16.944 161.881 19.164 160.705 21.06C159.529 22.932 157.897 24.396 155.809 25.452C153.721 26.484 151.309 27 148.573 27H137.125ZM142.957 22.212H148.285C149.965 22.212 151.417 21.9 152.641 21.276C153.889 20.628 154.849 19.716 155.521 18.54C156.217 17.364 156.565 15.984 156.565 14.4C156.565 12.792 156.217 11.412 155.521 10.26C154.849 9.084 153.889 8.184 152.641 7.56C151.417 6.912 149.965 6.588 148.285 6.588H142.957V22.212ZM172.231 11.952H184.363V16.488H172.231V11.952ZM172.663 22.32H186.379V27H166.867V1.8H185.911V6.48H172.663V22.32ZM191.019 27V1.8H201.927C204.183 1.8 206.127 2.172 207.759 2.916C209.391 3.636 210.651 4.68 211.539 6.048C212.427 7.416 212.871 9.048 212.871 10.944C212.871 12.816 212.427 14.436 211.539 15.804C210.651 17.148 209.391 18.18 207.759 18.9C206.127 19.62 204.183 19.98 201.927 19.98H194.259L196.851 17.424V27H191.019ZM207.039 27L200.739 17.856H206.967L213.339 27H207.039ZM196.851 18.072L194.259 15.336H201.603C203.403 15.336 204.747 14.952 205.635 14.184C206.523 13.392 206.967 12.312 206.967 10.944C206.967 9.552 206.523 8.472 205.635 7.704C204.747 6.936 203.403 6.552 201.603 6.552H194.259L196.851 3.78V18.072ZM225.772 27.432C223.756 27.432 221.824 27.168 219.976 26.64C218.128 26.088 216.64 25.38 215.512 24.516L217.492 20.124C218.572 20.892 219.844 21.528 221.308 22.032C222.796 22.512 224.296 22.752 225.808 22.752C226.96 22.752 227.884 22.644 228.58 22.428C229.3 22.188 229.828 21.864 230.164 21.456C230.5 21.048 230.668 20.58 230.668 20.052C230.668 19.38 230.404 18.852 229.876 18.468C229.348 18.06 228.652 17.736 227.788 17.496C226.924 17.232 225.964 16.992 224.908 16.776C223.876 16.536 222.832 16.248 221.776 15.912C220.744 15.576 219.796 15.144 218.932 14.616C218.068 14.088 217.36 13.392 216.808 12.528C216.28 11.664 216.016 10.56 216.016 9.216C216.016 7.776 216.4 6.468 217.168 5.292C217.96 4.092 219.136 3.144 220.696 2.448C222.28 1.728 224.26 1.368 226.636 1.368C228.22 1.368 229.78 1.56 231.316 1.944C232.852 2.304 234.208 2.856 235.384 3.6L233.584 8.028C232.408 7.356 231.232 6.864 230.056 6.552C228.88 6.216 227.728 6.048 226.6 6.048C225.472 6.048 224.548 6.18 223.828 6.444C223.108 6.708 222.592 7.056 222.28 7.488C221.968 7.896 221.812 8.376 221.812 8.928C221.812 9.576 222.076 10.104 222.604 10.512C223.132 10.896 223.828 11.208 224.692 11.448C225.556 11.688 226.504 11.928 227.536 12.168C228.592 12.408 229.636 12.684 230.668 12.996C231.724 13.308 232.684 13.728 233.548 14.256C234.412 14.784 235.108 15.48 235.636 16.344C236.188 17.208 236.464 18.3 236.464 19.62C236.464 21.036 236.068 22.332 235.276 23.508C234.484 24.684 233.296 25.632 231.712 26.352C230.152 27.072 228.172 27.432 225.772 27.432ZM245.317 27V6.552H237.253V1.8H259.213V6.552H251.149V27H245.317ZM257.774 27L269.006 1.8H274.766L286.034 27H279.914L270.698 4.752H273.002L263.75 27H257.774ZM263.39 21.6L264.938 17.172H277.898L279.482 21.6H263.39ZM288.648 27V1.8H293.472L308.34 19.944H306V1.8H311.76V27H306.972L292.068 8.856H294.408V27H288.648ZM317.722 27V1.8H329.17C331.906 1.8 334.318 2.328 336.406 3.384C338.494 4.416 340.126 5.868 341.302 7.74C342.478 9.612 343.066 11.832 343.066 14.4C343.066 16.944 342.478 19.164 341.302 21.06C340.126 22.932 338.494 24.396 336.406 25.452C334.318 26.484 331.906 27 329.17 27H317.722ZM323.554 22.212H328.882C330.562 22.212 332.014 21.9 333.238 21.276C334.486 20.628 335.446 19.716 336.118 18.54C336.814 17.364 337.162 15.984 337.162 14.4C337.162 12.792 336.814 11.412 336.118 10.26C335.446 9.084 334.486 8.184 333.238 7.56C332.014 6.912 330.562 6.588 328.882 6.588H323.554V22.212Z" fill="#333333"/>
<path d="M10.036 27L9.08557 27.3109L9.31099 28H10.036V27ZM1.792 1.8V0.799998H0.412706L0.841566 2.11093L1.792 1.8ZM7.84 1.8L8.79216 1.49439L8.56928 0.799998H7.84V1.8ZM15.004 24.12V25.12H16.3752L15.9562 23.8144L15.004 24.12ZM11.98 24.12L11.0319 23.8019L10.5897 25.12H11.98V24.12ZM19.468 1.8V0.799998H18.7487L18.5199 1.48194L19.468 1.8ZM24.868 1.8L25.8197 1.493L25.5962 0.799998H24.868V1.8ZM32.068 24.12V25.12H33.4413L33.0197 23.813L32.068 24.12ZM29.152 24.12L28.2021 23.8075L27.7702 25.12H29.152V24.12ZM36.496 1.8V0.799998H35.7723L35.5461 1.48745L36.496 1.8ZM42.076 1.8L43.0264 2.11093L43.4553 0.799998H42.076V1.8ZM33.832 27V28H34.557L34.7824 27.3109L33.832 27ZM27.568 27L26.6171 27.3094L26.8418 28H27.568V27ZM21.196 7.416V6.416H19.819L20.2451 7.7254L21.196 7.416ZM22.852 7.416L23.8003 7.73327L24.241 6.416H22.852V7.416ZM16.3 27V28H17.0199L17.2483 27.3173L16.3 27ZM10.9864 26.6891L2.74243 1.48907L0.841566 2.11093L9.08557 27.3109L10.9864 26.6891ZM1.792 2.8H7.84V0.799998H1.792V2.8ZM6.88784 2.10561L14.0518 24.4256L15.9562 23.8144L8.79216 1.49439L6.88784 2.10561ZM15.004 23.12H11.98V25.12H15.004V23.12ZM12.9281 24.4381L20.4161 2.11806L18.5199 1.48194L11.0319 23.8019L12.9281 24.4381ZM19.468 2.8H24.868V0.799998H19.468V2.8ZM23.9163 2.107L31.1163 24.427L33.0197 23.813L25.8197 1.493L23.9163 2.107ZM32.068 23.12H29.152V25.12H32.068V23.12ZM30.1019 24.4325L37.4459 2.11255L35.5461 1.48745L28.2021 23.8075L30.1019 24.4325ZM36.496 2.8H42.076V0.799998H36.496V2.8ZM41.1256 1.48907L32.8816 26.6891L34.7824 27.3109L43.0264 2.11093L41.1256 1.48907ZM33.832 26H27.568V28H33.832V26ZM28.5189 26.6906L22.1469 7.1066L20.2451 7.7254L26.6171 27.3094L28.5189 26.6906ZM21.196 8.416H22.852V6.416H21.196V8.416ZM21.9037 7.09873L15.3517 26.6827L17.2483 27.3173L23.8003 7.73327L21.9037 7.09873ZM16.3 26H10.036V28H16.3V26ZM50.6958 11.952V10.952H49.6958V11.952H50.6958ZM62.8278 11.952H63.8278V10.952H62.8278V11.952ZM62.8278 16.488V17.488H63.8278V16.488H62.8278ZM50.6958 16.488H49.6958V17.488H50.6958V16.488ZM51.1278 22.32H50.1278V23.32H51.1278V22.32ZM64.8438 22.32H65.8438V21.32H64.8438V22.32ZM64.8438 27V28H65.8438V27H64.8438ZM45.3317 27H44.3317V28H45.3317V27ZM45.3317 1.8V0.799998H44.3317V1.8H45.3317ZM64.3758 1.8H65.3758V0.799998H64.3758V1.8ZM64.3758 6.48V7.48H65.3758V6.48H64.3758ZM51.1278 6.48V5.48H50.1278V6.48H51.1278ZM50.6958 12.952H62.8278V10.952H50.6958V12.952ZM61.8278 11.952V16.488H63.8278V11.952H61.8278ZM62.8278 15.488H50.6958V17.488H62.8278V15.488ZM51.6958 16.488V11.952H49.6958V16.488H51.6958ZM51.1278 23.32H64.8438V21.32H51.1278V23.32ZM63.8438 22.32V27H65.8438V22.32H63.8438ZM64.8438 26H45.3317V28H64.8438V26ZM46.3317 27V1.8H44.3317V27H46.3317ZM45.3317 2.8H64.3758V0.799998H45.3317V2.8ZM63.3758 1.8V6.48H65.3758V1.8H63.3758ZM64.3758 5.48H51.1278V7.48H64.3758V5.48ZM50.1278 6.48V22.32H52.1278V6.48H50.1278ZM82.4874 24.444L83.1903 23.7327L82.4874 24.444ZM79.4634 1.8V0.799998H78.4634V1.8H79.4634ZM85.2954 1.8H86.2954V0.799998H85.2954V1.8ZM86.7714 20.88L86.0398 21.5617L86.7714 20.88ZM95.0514 20.88L95.783 21.5617H95.783L95.0514 20.88ZM96.5274 1.8V0.799998H95.5274V1.8H96.5274ZM102.287 1.8H103.287V0.799998H102.287V1.8ZM99.2634 24.444L99.9663 25.1553L99.2634 24.444ZM90.8754 26.432C87.4902 26.432 84.9732 25.4944 83.1903 23.7327L81.7845 25.1553C84.0336 27.3776 87.1087 28.432 90.8754 28.432V26.432ZM83.1903 23.7327C81.4173 21.9808 80.4634 19.4255 80.4634 15.912H78.4634C78.4634 19.7905 79.5256 22.9232 81.7845 25.1553L83.1903 23.7327ZM80.4634 15.912V1.8H78.4634V15.912H80.4634ZM79.4634 2.8H85.2954V0.799998H79.4634V2.8ZM84.2954 1.8V15.696H86.2954V1.8H84.2954ZM84.2954 15.696C84.2954 18.1919 84.7999 20.2311 86.0398 21.5617L87.503 20.1983C86.7749 19.4169 86.2954 18.0001 86.2954 15.696H84.2954ZM86.0398 21.5617C87.2552 22.866 88.9266 23.464 90.9114 23.464V21.464C89.3442 21.464 88.2557 21.006 87.503 20.1983L86.0398 21.5617ZM90.9114 23.464C92.8962 23.464 94.5676 22.866 95.783 21.5617L94.3198 20.1983C93.5672 21.006 92.4786 21.464 90.9114 21.464V23.464ZM95.783 21.5617C97.0229 20.2311 97.5274 18.1919 97.5274 15.696H95.5274C95.5274 18.0001 95.0479 19.4169 94.3198 20.1983L95.783 21.5617ZM97.5274 15.696V1.8H95.5274V15.696H97.5274ZM96.5274 2.8H102.287V0.799998H96.5274V2.8ZM101.287 1.8V15.912H103.287V1.8H101.287ZM101.287 15.912C101.287 19.4255 100.334 21.9808 98.5605 23.7327L99.9663 25.1553C102.225 22.9232 103.287 19.7905 103.287 15.912H101.287ZM98.5605 23.7327C96.7776 25.4944 94.2607 26.432 90.8754 26.432V28.432C94.6422 28.432 97.7172 27.3776 99.9663 25.1553L98.5605 23.7327ZM108.05 27H107.05V28H108.05V27ZM108.05 1.8V0.799998H107.05V1.8H108.05ZM112.874 1.8L113.648 1.16618L113.348 0.799998H112.874V1.8ZM127.743 19.944V20.944H129.855L128.516 19.3102L127.743 19.944ZM125.402 19.944H124.402V20.944H125.402V19.944ZM125.402 1.8V0.799998H124.402V1.8H125.402ZM131.163 1.8H132.163V0.799998H131.163V1.8ZM131.163 27V28H132.163V27H131.163ZM126.374 27L125.602 27.6347L125.902 28H126.374V27ZM111.47 8.856V7.856H109.355L110.698 9.49074L111.47 8.856ZM113.811 8.856H114.811V7.856H113.811V8.856ZM113.811 27V28H114.811V27H113.811ZM109.05 27V1.8H107.05V27H109.05ZM108.05 2.8H112.874V0.799998H108.05V2.8ZM112.101 2.43382L126.969 20.5778L128.516 19.3102L113.648 1.16618L112.101 2.43382ZM127.743 18.944H125.402V20.944H127.743V18.944ZM126.402 19.944V1.8H124.402V19.944H126.402ZM125.402 2.8H131.163V0.799998H125.402V2.8ZM130.163 1.8V27H132.163V1.8H130.163ZM131.163 26H126.374V28H131.163V26ZM127.147 26.3653L112.243 8.22126L110.698 9.49074L125.602 27.6347L127.147 26.3653ZM111.47 9.856H113.811V7.856H111.47V9.856ZM112.811 8.856V27H114.811V8.856H112.811ZM113.811 26H108.05V28H113.811V26ZM137.125 27H136.125V28H137.125V27ZM137.125 1.8V0.799998H136.125V1.8H137.125ZM155.809 3.384L155.357 4.2764L155.366 4.28048L155.809 3.384ZM160.705 21.06L161.552 21.592L161.555 21.5871L160.705 21.06ZM155.809 25.452L156.252 26.3485L156.26 26.3444L155.809 25.452ZM142.957 22.212H141.957V23.212H142.957V22.212ZM152.641 21.276L153.095 22.1669L153.102 22.1635L152.641 21.276ZM155.521 18.54L154.66 18.0307L154.656 18.0372L154.652 18.0439L155.521 18.54ZM155.521 10.26L154.652 10.7561L154.659 10.7667L154.665 10.7771L155.521 10.26ZM152.641 7.56L152.173 8.44379L152.183 8.44923L152.194 8.45443L152.641 7.56ZM142.957 6.588V5.588H141.957V6.588H142.957ZM138.125 27V1.8H136.125V27H138.125ZM137.125 2.8H148.573V0.799998H137.125V2.8ZM148.573 2.8C151.178 2.8 153.431 3.30219 155.357 4.27637L156.26 2.49163C154.01 1.35381 151.439 0.799998 148.573 0.799998V2.8ZM155.366 4.28048C157.297 5.23518 158.786 6.56495 159.858 8.27195L161.551 7.20805C160.272 5.17104 158.496 3.59682 156.252 2.48752L155.366 4.28048ZM159.858 8.27195C160.919 9.96023 161.469 11.9892 161.469 14.4H163.469C163.469 11.6748 162.843 9.26377 161.551 7.20805L159.858 8.27195ZM161.469 14.4C161.469 16.7845 160.92 18.8165 159.855 20.5329L161.555 21.5871C162.842 19.5115 163.469 17.1035 163.469 14.4H161.469ZM159.858 20.528C158.784 22.2371 157.293 23.5806 155.357 24.5596L156.26 26.3444C158.5 25.2114 160.273 23.6269 161.551 21.5919L159.858 20.528ZM155.366 24.5555C153.438 25.5085 151.182 26 148.573 26V28C151.436 28 154.004 27.4595 156.252 26.3485L155.366 24.5555ZM148.573 26H137.125V28H148.573V26ZM142.957 23.212H148.285V21.212H142.957V23.212ZM148.285 23.212C150.088 23.212 151.702 22.8769 153.095 22.1669L152.187 20.3851C151.131 20.9231 149.841 21.212 148.285 21.212V23.212ZM153.102 22.1635C154.513 21.4305 155.618 20.3856 156.389 19.0361L154.652 18.0439C154.08 19.0464 153.264 19.8255 152.18 20.3885L153.102 22.1635ZM156.381 19.0493C157.182 17.696 157.565 16.1343 157.565 14.4H155.565C155.565 15.8337 155.251 17.032 154.66 18.0307L156.381 19.0493ZM157.565 14.4C157.565 12.6454 157.184 11.0789 156.377 9.74288L154.665 10.7771C155.25 11.7451 155.565 12.9386 155.565 14.4H157.565ZM156.389 9.76386C155.616 8.41105 154.507 7.37504 153.088 6.66557L152.194 8.45443C153.271 8.99296 154.082 9.75695 154.652 10.7561L156.389 9.76386ZM153.109 6.67621C151.713 5.93727 150.093 5.588 148.285 5.588V7.588C149.836 7.588 151.121 7.88673 152.173 8.44379L153.109 6.67621ZM148.285 5.588H142.957V7.588H148.285V5.588ZM141.957 6.588V22.212H143.957V6.588H141.957ZM172.231 11.952V10.952H171.231V11.952H172.231ZM184.363 11.952H185.363V10.952H184.363V11.952ZM184.363 16.488V17.488H185.363V16.488H184.363ZM172.231 16.488H171.231V17.488H172.231V16.488ZM172.663 22.32H171.663V23.32H172.663V22.32ZM186.379 22.32H187.379V21.32H186.379V22.32ZM186.379 27V28H187.379V27H186.379ZM166.867 27H165.867V28H166.867V27ZM166.867 1.8V0.799998H165.867V1.8H166.867ZM185.911 1.8H186.911V0.799998H185.911V1.8ZM185.911 6.48V7.48H186.911V6.48H185.911ZM172.663 6.48V5.48H171.663V6.48H172.663ZM172.231 12.952H184.363V10.952H172.231V12.952ZM183.363 11.952V16.488H185.363V11.952H183.363ZM184.363 15.488H172.231V17.488H184.363V15.488ZM173.231 16.488V11.952H171.231V16.488H173.231ZM172.663 23.32H186.379V21.32H172.663V23.32ZM185.379 22.32V27H187.379V22.32H185.379ZM186.379 26H166.867V28H186.379V26ZM167.867 27V1.8H165.867V27H167.867ZM166.867 2.8H185.911V0.799998H166.867V2.8ZM184.911 1.8V6.48H186.911V1.8H184.911ZM185.911 5.48H172.663V7.48H185.911V5.48ZM171.663 6.48V22.32H173.663V6.48H171.663ZM191.019 27H190.019V28H191.019V27ZM191.019 1.8V0.799998H190.019V1.8H191.019ZM207.759 2.916L207.344 3.82597L207.356 3.83092L207.759 2.916ZM211.539 6.048L210.7 6.59247L211.539 6.048ZM211.539 15.804L212.374 16.3553L212.378 16.3485L211.539 15.804ZM207.759 18.9L208.163 19.8149L207.759 18.9ZM194.259 19.98L193.557 19.268L191.821 20.98H194.259V19.98ZM196.851 17.424H197.851V15.0335L196.149 16.712L196.851 17.424ZM196.851 27V28H197.851V27H196.851ZM207.039 27L206.216 27.5674L206.514 28H207.039V27ZM200.739 17.856V16.856H198.836L199.916 18.4234L200.739 17.856ZM206.967 17.856L207.788 17.2843L207.489 16.856H206.967V17.856ZM213.339 27V28H215.255L214.16 26.4283L213.339 27ZM196.851 18.072L196.125 18.7597L197.851 20.5816V18.072H196.851ZM194.259 15.336V14.336H191.934L193.533 16.0237L194.259 15.336ZM205.635 14.184L206.289 14.9404L206.295 14.9354L206.301 14.9303L205.635 14.184ZM194.259 6.552L193.529 5.86901L191.955 7.552H194.259V6.552ZM196.851 3.78H197.851V1.24641L196.121 3.097L196.851 3.78ZM192.019 27V1.8H190.019V27H192.019ZM191.019 2.8H201.927V0.799998H191.019V2.8ZM201.927 2.8C204.076 2.8 205.872 3.15451 207.344 3.82591L208.174 2.00609C206.383 1.18949 204.291 0.799998 201.927 0.799998V2.8ZM207.356 3.83092C208.827 4.48005 209.928 5.40287 210.7 6.59247L212.378 5.50353C211.374 3.95712 209.956 2.79195 208.163 2.00108L207.356 3.83092ZM210.7 6.59247C211.467 7.7734 211.871 9.20916 211.871 10.944H213.871C213.871 8.88684 213.387 7.0586 212.378 5.50353L210.7 6.59247ZM211.871 10.944C211.871 12.652 211.468 14.0766 210.7 15.2595L212.378 16.3485C213.386 14.7954 213.871 12.98 213.871 10.944H211.871ZM210.705 15.2527C209.934 16.4198 208.832 17.3339 207.356 17.9851L208.163 19.8149C209.951 19.0261 211.369 17.8762 212.374 16.3553L210.705 15.2527ZM207.356 17.9851C205.88 18.6362 204.08 18.98 201.927 18.98V20.98C204.287 20.98 206.375 20.6038 208.163 19.8149L207.356 17.9851ZM201.927 18.98H194.259V20.98H201.927V18.98ZM194.961 20.692L197.553 18.136L196.149 16.712L193.557 19.268L194.961 20.692ZM195.851 17.424V27H197.851V17.424H195.851ZM196.851 26H191.019V28H196.851V26ZM207.863 26.4326L201.563 17.2886L199.916 18.4234L206.216 27.5674L207.863 26.4326ZM200.739 18.856H206.967V16.856H200.739V18.856ZM206.147 18.4277L212.519 27.5717L214.16 26.4283L207.788 17.2843L206.147 18.4277ZM213.339 26H207.039V28H213.339V26ZM197.577 17.3843L194.985 14.6483L193.533 16.0237L196.125 18.7597L197.577 17.3843ZM194.259 16.336H201.603V14.336H194.259V16.336ZM201.603 16.336C203.521 16.336 205.144 15.9306 206.289 14.9404L204.981 13.4276C204.35 13.9734 203.286 14.336 201.603 14.336V16.336ZM206.301 14.9303C207.434 13.9193 207.967 12.5499 207.967 10.944H205.967C205.967 12.0741 205.612 12.8647 204.97 13.4377L206.301 14.9303ZM207.967 10.944C207.967 9.32094 207.438 7.94123 206.289 6.94764L204.981 8.46036C205.608 9.00277 205.967 9.78306 205.967 10.944H207.967ZM206.289 6.94764C205.144 5.95739 203.521 5.552 201.603 5.552V7.552C203.286 7.552 204.35 7.91461 204.981 8.46036L206.289 6.94764ZM201.603 5.552H194.259V7.552H201.603V5.552ZM194.99 7.23499L197.582 4.46299L196.121 3.097L193.529 5.86901L194.99 7.23499ZM195.851 3.78V18.072H197.851V3.78H195.851ZM219.976 26.64L219.69 27.5982L219.701 27.6015L219.976 26.64ZM215.512 24.516L214.6 24.105L214.274 24.8278L214.904 25.3099L215.512 24.516ZM217.492 20.124L218.071 19.309L217.08 18.6041L216.58 19.713L217.492 20.124ZM221.308 22.032L220.982 22.9775L220.992 22.9807L221.001 22.9837L221.308 22.032ZM228.58 22.428L228.876 23.3831L228.886 23.38L228.896 23.3767L228.58 22.428ZM230.164 21.456L229.392 20.8203L230.164 21.456ZM229.876 18.468L229.264 19.2593L229.276 19.2682L229.288 19.2767L229.876 18.468ZM227.788 17.496L227.496 18.4524L227.508 18.4561L227.52 18.4595L227.788 17.496ZM224.908 16.776L224.681 17.75L224.694 17.753L224.708 17.7557L224.908 16.776ZM221.776 15.912L221.466 16.8629L221.473 16.8649L221.776 15.912ZM218.932 14.616L218.41 15.4693L218.932 14.616ZM216.808 12.528L215.955 13.0494L215.96 13.058L215.965 13.0664L216.808 12.528ZM217.168 5.292L216.333 4.74115L216.331 4.74521L217.168 5.292ZM220.696 2.448L221.103 3.36125L221.11 3.35837L220.696 2.448ZM231.316 1.944L231.073 2.91414L231.081 2.91593L231.088 2.91761L231.316 1.944ZM235.384 3.6L236.31 3.97658L236.625 3.20197L235.919 2.75492L235.384 3.6ZM233.584 8.028L233.088 8.89624L234.08 9.46321L234.51 8.40458L233.584 8.028ZM230.056 6.552L229.781 7.51352L229.79 7.51613L229.799 7.51856L230.056 6.552ZM223.828 6.444L223.484 5.50512V5.50512L223.828 6.444ZM222.28 7.488L223.074 8.09545L223.083 8.08458L223.091 8.07349L222.28 7.488ZM222.604 10.512L221.992 11.3033L222.004 11.3122L222.016 11.3207L222.604 10.512ZM224.692 11.448L224.424 12.4115H224.424L224.692 11.448ZM227.536 12.168L227.309 13.142L227.314 13.1431L227.536 12.168ZM230.668 12.996L230.379 13.9532L230.385 13.955L230.668 12.996ZM233.548 14.256L234.069 13.4027L233.548 14.256ZM235.636 16.344L234.783 16.8654L234.788 16.874L234.793 16.8824L235.636 16.344ZM235.276 23.508L236.105 24.0666L235.276 23.508ZM231.712 26.352L231.298 25.4416L231.293 25.444L231.712 26.352ZM225.772 26.432C223.844 26.432 222.005 26.1797 220.251 25.6785L219.701 27.6015C221.643 28.1563 223.668 28.432 225.772 28.432V26.432ZM220.262 25.6818C218.492 25.153 217.124 24.4911 216.12 23.7221L214.904 25.3099C216.156 26.2689 217.764 27.023 219.69 27.5982L220.262 25.6818ZM216.424 24.927L218.404 20.535L216.58 19.713L214.6 24.105L216.424 24.927ZM216.912 20.939C218.082 21.7708 219.443 22.4475 220.982 22.9775L221.633 21.0865C220.245 20.6085 219.062 20.0132 218.071 19.309L216.912 20.939ZM221.001 22.9837C222.585 23.4946 224.188 23.752 225.808 23.752V21.752C224.404 21.752 223.007 21.5294 221.615 21.0803L221.001 22.9837ZM225.808 23.752C227.009 23.752 228.045 23.6409 228.876 23.3831L228.284 21.4729C227.722 21.6471 226.911 21.752 225.808 21.752V23.752ZM228.896 23.3767C229.721 23.1018 230.439 22.6949 230.936 22.0917L229.392 20.8203C229.217 21.0331 228.879 21.2742 228.264 21.4793L228.896 23.3767ZM230.936 22.0917C231.419 21.5049 231.668 20.8122 231.668 20.052H229.668C229.668 20.3478 229.581 20.5911 229.392 20.8203L230.936 22.0917ZM231.668 20.052C231.668 19.0711 231.26 18.2379 230.464 17.6593L229.288 19.2767C229.548 19.4661 229.668 19.6889 229.668 20.052H231.668ZM230.487 17.6767C229.828 17.1675 229.004 16.7959 228.056 16.5325L227.52 18.4595C228.3 18.6761 228.867 18.9525 229.264 19.2593L230.487 17.6767ZM228.08 16.5396C227.181 16.2649 226.19 16.0175 225.108 15.7963L224.708 17.7557C225.738 17.9665 226.667 18.1991 227.496 18.4524L228.08 16.5396ZM225.134 15.802C224.129 15.5683 223.111 15.2874 222.079 14.9591L221.473 16.8649C222.553 17.2086 223.622 17.5037 224.681 17.75L225.134 15.802ZM222.085 14.9611C221.122 14.6476 220.246 14.2472 219.453 13.7627L218.41 15.4693C219.346 16.0408 220.365 16.5044 221.466 16.8629L222.085 14.9611ZM219.453 13.7627C218.721 13.3149 218.122 12.7273 217.651 11.9896L215.965 13.0664C216.598 14.0567 217.415 14.8611 218.41 15.4693L219.453 13.7627ZM217.661 12.0065C217.256 11.343 217.016 10.4346 217.016 9.216H215.016C215.016 10.6854 215.304 11.985 215.955 13.0494L217.661 12.0065ZM217.016 9.216C217.016 7.96501 217.346 6.8479 218.005 5.83879L216.331 4.74521C215.454 6.0881 215.016 7.58699 215.016 9.216H217.016ZM218.003 5.84284C218.671 4.82968 219.684 3.99439 221.103 3.36123L220.288 1.53477C218.588 2.2936 217.249 3.35432 216.333 4.74116L218.003 5.84284ZM221.11 3.35837C222.525 2.71486 224.353 2.368 226.636 2.368V0.368C224.166 0.368 222.034 0.741135 220.282 1.53763L221.11 3.35837ZM226.636 2.368C228.138 2.368 229.617 2.54998 231.073 2.91414L231.558 0.973856C229.943 0.570017 228.302 0.368 226.636 0.368V2.368ZM231.088 2.91761C232.529 3.25552 233.779 3.76811 234.849 4.44508L235.919 2.75492C234.637 1.94389 233.174 1.35248 231.544 0.970382L231.088 2.91761ZM234.458 3.22342L232.658 7.65142L234.51 8.40458L236.31 3.97658L234.458 3.22342ZM234.08 7.15976C232.837 6.44952 231.581 5.92203 230.312 5.58544L229.799 7.51856C230.883 7.80597 231.979 8.26248 233.088 8.89624L234.08 7.15976ZM230.331 5.59048C229.073 5.23109 227.828 5.048 226.6 5.048V7.048C227.628 7.048 228.687 7.20091 229.781 7.51352L230.331 5.59048ZM226.6 5.048C225.405 5.048 224.353 5.18643 223.484 5.50512L224.172 7.38288C224.743 7.17357 225.539 7.048 226.6 7.048V5.048ZM223.484 5.50512C222.655 5.809 221.939 6.25226 221.469 6.90251L223.091 8.07349C223.245 7.85974 223.561 7.607 224.172 7.38287L223.484 5.50512ZM221.486 6.88055C221.03 7.47635 220.812 8.1739 220.812 8.928H222.812C222.812 8.5781 222.906 8.31565 223.074 8.09545L221.486 6.88055ZM220.812 8.928C220.812 9.89631 221.228 10.7125 221.992 11.3033L223.215 9.72071C222.924 9.4955 222.812 9.25569 222.812 8.928H220.812ZM222.016 11.3207C222.669 11.796 223.485 12.1506 224.424 12.4115L224.96 10.4845C224.171 10.2654 223.595 9.99603 223.192 9.70326L222.016 11.3207ZM224.424 12.4115C225.304 12.6559 226.266 12.8994 227.309 13.142L227.762 11.194C226.742 10.9566 225.808 10.7201 224.96 10.4845L224.424 12.4115ZM227.314 13.1431C228.348 13.378 229.369 13.648 230.379 13.9532L230.957 12.0388C229.903 11.72 228.836 11.438 227.758 11.1929L227.314 13.1431ZM230.385 13.955C231.364 14.2444 232.243 14.6305 233.026 15.1093L234.069 13.4027C233.125 12.8255 232.084 12.3716 230.951 12.037L230.385 13.955ZM233.026 15.1093C233.755 15.5546 234.337 16.1368 234.783 16.8654L236.489 15.8225C235.878 14.8232 235.069 14.0134 234.069 13.4027L233.026 15.1093ZM234.793 16.8824C235.217 17.5454 235.464 18.4366 235.464 19.62H237.464C237.464 18.1634 237.159 16.8706 236.479 15.8056L234.793 16.8824ZM235.464 19.62C235.464 20.8367 235.127 21.9382 234.446 22.9494L236.105 24.0666C237.008 22.7257 237.464 21.2353 237.464 19.62H235.464ZM234.446 22.9494C233.779 23.9405 232.752 24.7808 231.298 25.4416L232.126 27.2624C233.84 26.4832 235.189 25.4275 236.105 24.0666L234.446 22.9494ZM231.293 25.444C229.906 26.0843 228.081 26.432 225.772 26.432V28.432C228.263 28.432 230.398 28.0597 232.131 27.26L231.293 25.444ZM245.317 27H244.317V28H245.317V27ZM245.317 6.552H246.317V5.552H245.317V6.552ZM237.253 6.552H236.253V7.552H237.253V6.552ZM237.253 1.8V0.799998H236.253V1.8H237.253ZM259.213 1.8H260.213V0.799998H259.213V1.8ZM259.213 6.552V7.552H260.213V6.552H259.213ZM251.149 6.552V5.552H250.149V6.552H251.149ZM251.149 27V28H252.149V27H251.149ZM246.317 27V6.552H244.317V27H246.317ZM245.317 5.552H237.253V7.552H245.317V5.552ZM238.253 6.552V1.8H236.253V6.552H238.253ZM237.253 2.8H259.213V0.799998H237.253V2.8ZM258.213 1.8V6.552H260.213V1.8H258.213ZM259.213 5.552H251.149V7.552H259.213V5.552ZM250.149 6.552V27H252.149V6.552H250.149ZM251.149 26H245.317V28H251.149V26ZM257.774 27L256.86 26.5929L256.233 28H257.774V27ZM269.006 1.8V0.799998H268.357L268.092 1.39289L269.006 1.8ZM274.766 1.8L275.679 1.3918L275.414 0.799998H274.766V1.8ZM286.034 27V28H287.576L286.947 26.5918L286.034 27ZM279.914 27L278.99 27.3827L279.245 28H279.914V27ZM270.698 4.752V3.752H269.201L269.774 5.1347L270.698 4.752ZM273.002 4.752L273.925 5.13598L274.501 3.752H273.002V4.752ZM263.75 27V28H264.417L264.673 27.384L263.75 27ZM263.39 21.6L262.446 21.27L261.981 22.6H263.39V21.6ZM264.938 17.172V16.172H264.228L263.994 16.842L264.938 17.172ZM277.898 17.172L278.839 16.8352L278.602 16.172H277.898V17.172ZM279.482 21.6V22.6H280.901L280.423 21.2632L279.482 21.6ZM258.687 27.4071L269.919 2.2071L268.092 1.39289L256.86 26.5929L258.687 27.4071ZM269.006 2.8H274.766V0.799998H269.006V2.8ZM273.853 2.20819L285.121 27.4082L286.947 26.5918L275.679 1.3918L273.853 2.20819ZM286.034 26H279.914V28H286.034V26ZM280.838 26.6173L271.622 4.3693L269.774 5.1347L278.99 27.3827L280.838 26.6173ZM270.698 5.752H273.002V3.752H270.698V5.752ZM272.078 4.36802L262.826 26.616L264.673 27.384L273.925 5.13598L272.078 4.36802ZM263.75 26H257.774V28H263.75V26ZM264.334 21.93L265.882 17.502L263.994 16.842L262.446 21.27L264.334 21.93ZM264.938 18.172H277.898V16.172H264.938V18.172ZM276.956 17.5088L278.54 21.9368L280.423 21.2632L278.839 16.8352L276.956 17.5088ZM279.482 20.6H263.39V22.6H279.482V20.6ZM288.648 27H287.648V28H288.648V27ZM288.648 1.8V0.799998H287.648V1.8H288.648ZM293.472 1.8L294.246 1.16618L293.946 0.799998H293.472V1.8ZM308.34 19.944V20.944H310.452L309.114 19.3102L308.34 19.944ZM306 19.944H305V20.944H306V19.944ZM306 1.8V0.799998H305V1.8H306ZM311.76 1.8H312.76V0.799998H311.76V1.8ZM311.76 27V28H312.76V27H311.76ZM306.972 27L306.199 27.6347L306.499 28H306.972V27ZM292.068 8.856V7.856H289.953L291.295 9.49074L292.068 8.856ZM294.408 8.856H295.408V7.856H294.408V8.856ZM294.408 27V28H295.408V27H294.408ZM289.648 27V1.8H287.648V27H289.648ZM288.648 2.8H293.472V0.799998H288.648V2.8ZM292.699 2.43382L307.567 20.5778L309.114 19.3102L294.246 1.16618L292.699 2.43382ZM308.34 18.944H306V20.944H308.34V18.944ZM307 19.944V1.8H305V19.944H307ZM306 2.8H311.76V0.799998H306V2.8ZM310.76 1.8V27H312.76V1.8H310.76ZM311.76 26H306.972V28H311.76V26ZM307.745 26.3653L292.841 8.22126L291.295 9.49074L306.199 27.6347L307.745 26.3653ZM292.068 9.856H294.408V7.856H292.068V9.856ZM293.408 8.856V27H295.408V8.856H293.408ZM294.408 26H288.648V28H294.408V26ZM317.722 27H316.722V28H317.722V27ZM317.722 1.8V0.799998H316.722V1.8H317.722ZM336.406 3.384L335.955 4.2764L335.963 4.28048L336.406 3.384ZM341.302 21.06L342.149 21.592L342.152 21.5871L341.302 21.06ZM336.406 25.452L336.849 26.3485L336.858 26.3444L336.406 25.452ZM323.554 22.212H322.554V23.212H323.554V22.212ZM333.238 21.276L333.693 22.1669L333.699 22.1635L333.238 21.276ZM336.118 18.54L335.258 18.0307L335.254 18.0372L335.25 18.0439L336.118 18.54ZM336.118 10.26L335.25 10.7561L335.256 10.7667L335.262 10.7771L336.118 10.26ZM333.238 7.56L332.77 8.44379L332.781 8.44923L332.791 8.45443L333.238 7.56ZM323.554 6.588V5.588H322.554V6.588H323.554ZM318.722 27V1.8H316.722V27H318.722ZM317.722 2.8H329.17V0.799998H317.722V2.8ZM329.17 2.8C331.776 2.8 334.029 3.30219 335.955 4.27637L336.858 2.49163C334.608 1.35381 332.037 0.799998 329.17 0.799998V2.8ZM335.963 4.28048C337.895 5.23518 339.383 6.56495 340.456 8.27195L342.149 7.20805C340.87 5.17104 339.094 3.59682 336.849 2.48752L335.963 4.28048ZM340.456 8.27195C341.516 9.96023 342.066 11.9892 342.066 14.4H344.066C344.066 11.6748 343.441 9.26377 342.149 7.20805L340.456 8.27195ZM342.066 14.4C342.066 16.7845 341.517 18.8165 340.453 20.5329L342.152 21.5871C343.44 19.5115 344.066 17.1035 344.066 14.4H342.066ZM340.456 20.528C339.382 22.2371 337.891 23.5806 335.955 24.5596L336.858 26.3444C339.098 25.2114 340.871 23.6269 342.149 21.5919L340.456 20.528ZM335.963 24.5555C334.035 25.5085 331.779 26 329.17 26V28C332.033 28 334.602 27.4595 336.849 26.3485L335.963 24.5555ZM329.17 26H317.722V28H329.17V26ZM323.554 23.212H328.882V21.212H323.554V23.212ZM328.882 23.212C330.686 23.212 332.3 22.8769 333.693 22.1669L332.784 20.3851C331.729 20.9231 330.439 21.212 328.882 21.212V23.212ZM333.699 22.1635C335.111 21.4305 336.215 20.3856 336.987 19.0361L335.25 18.0439C334.677 19.0464 333.862 19.8255 332.778 20.3885L333.699 22.1635ZM336.979 19.0493C337.78 17.696 338.162 16.1343 338.162 14.4H336.162C336.162 15.8337 335.849 17.032 335.258 18.0307L336.979 19.0493ZM338.162 14.4C338.162 12.6454 337.781 11.0789 336.974 9.74288L335.262 10.7771C335.847 11.7451 336.162 12.9386 336.162 14.4H338.162ZM336.987 9.76386C336.214 8.41105 335.105 7.37504 333.686 6.66557L332.791 8.45443C333.868 8.99296 334.679 9.75695 335.25 10.7561L336.987 9.76386ZM333.706 6.67621C332.31 5.93727 330.691 5.588 328.882 5.588V7.588C330.434 7.588 331.718 7.88673 332.77 8.44379L333.706 6.67621ZM328.882 5.588H323.554V7.588H328.882V5.588ZM322.554 6.588V22.212H324.554V6.588H322.554Z" fill="#333333" mask="url(#path-1-outside-1_1_145)"/>
</svg>
